<?xml version="1.0" encoding="utf-8"?>
<!-- Generator: Adobe Illustrator 14.0.0, SVG Export Plug-In . SVG Version: 6.00 Build 43363)  -->
<!DOCTYPE svg PUBLIC "-//W3C//DTD SVG 1.1//EN" "http://www.w3.org/Graphics/SVG/1.1/DTD/svg11.dtd">
<svg version="1.1" id="Layer_1" xmlns="http://www.w3.org/2000/svg" xmlns:xlink="http://www.w3.org/1999/xlink" x="0px" y="0px"
	 width="634px" height="202.126px" viewBox="0 0 634 202.126" enable-background="new 0 0 634 202.126" xml:space="preserve">
<g>
	<defs>
		<rect id="SVGID_1_" x="-118" y="-370.126" width="634" height="202.126"/>
	</defs>
	<clipPath id="SVGID_2_">
		<use xlink:href="#SVGID_1_"  overflow="visible"/>
	</clipPath>
	<g clip-path="url(#SVGID_2_)">
		<g>
			<g>
				<g>
					<path fill="#736357" d="M879.998-316.157c0,0,6.629,8.638,7.553,13.419c0.924,4.781,1.848,9.562,1.848,9.562L879.998-316.157z"
						/>
				</g>
				<g>
					<path fill="#736357" d="M878.037-317.243c0,0,5.527,9.925,5.754,15c0.226,5.076,0.452,10.151,0.452,10.151L878.037-317.243z"/>
				</g>
				<g>
					<path fill="#736357" d="M867.716-317.78c0,0,7.387,9.906,8.36,15.347s1.947,10.88,1.947,10.88L867.716-317.78z"/>
				</g>
				<g>
					<path fill="#736357" d="M841.24-317.021c0,0,8.672,8.867,10.367,14.148s3.391,10.562,3.391,10.562L841.24-317.021z"/>
				</g>
				<g>
					<path fill="#736357" d="M841.499-321.407c0,0,6.058,13.566,5.769,20.205c-0.29,6.638-0.58,13.276-0.58,13.276L841.499-321.407z
						"/>
				</g>
				<g>
					<path fill="#736357" d="M828.941-324.11c0,0,6.79,15.824,6.342,23.512c-0.449,7.688-0.897,15.375-0.897,15.375L828.941-324.11z
						"/>
				</g>
				<g>
					<path fill="#736357" d="M821.938-320.569c0,0,7.479,12.417,7.987,18.879c0.508,6.462,1.016,12.925,1.016,12.925
						L821.938-320.569z"/>
				</g>
				<g>
					<path fill="#736357" d="M810.401-318.498c0,0,3.256,11.686,2.221,17.012c-1.034,5.325-2.069,10.651-2.069,10.651
						L810.401-318.498z"/>
				</g>
				<g>
					<path fill="#736357" d="M791.344-320.311c0,0,3.387,13.299,2.08,19.296c-1.305,5.997-2.61,11.993-2.61,11.993L791.344-320.311z
						"/>
				</g>
				<g>
					<path fill="#736357" d="M762.894-323.387c0,0,13.341,13.381,16.001,21.401c2.659,8.021,5.319,16.041,5.319,16.041
						L762.894-323.387z"/>
				</g>
				<g>
					<path fill="#736357" d="M759.877-324.011c0,0,9.243,15.065,9.928,22.94c0.684,7.874,1.367,15.749,1.367,15.749L759.877-324.011
						z"/>
				</g>
				<g>
					<path fill="#736357" d="M741.51-319.538c0,0,6.954,11.623,7.411,17.663c0.456,6.04,0.913,12.08,0.913,12.08L741.51-319.538z"/>
				</g>
				<g>
					<path fill="#736357" d="M714.907-315.35c0,0,7.846,7.573,9.469,12.17c1.624,4.598,3.248,9.196,3.248,9.196L714.907-315.35z"/>
				</g>
				<g>
					<path fill="#736357" d="M717.924-319.161c0,0,2.912,12.382,1.601,17.918c-1.312,5.535-2.623,11.071-2.623,11.071
						L717.924-319.161z"/>
				</g>
				<g>
					<path fill="#736357" d="M693.32-322.254c0,0,7.213,14.021,7.294,21.072c0.081,7.051,0.163,14.102,0.163,14.102L693.32-322.254z
						"/>
				</g>
				<g>
					<path fill="#736357" d="M681.746-324.549c0,0,11.311,14.991,12.838,23.249c1.525,8.258,3.052,16.517,3.052,16.517
						L681.746-324.549z"/>
				</g>
				<g>
					<path fill="#736357" d="M682.945-322.614c0,0,6.373,14.578,6.006,21.684s-0.732,14.211-0.732,14.211L682.945-322.614z"/>
				</g>
				<g>
					<path fill="#736357" d="M662.602-318.199c0,0,8.262,10.049,9.557,15.721s2.59,11.344,2.59,11.344L662.602-318.199z"/>
				</g>
				<g>
					<path fill="#736357" d="M657.306-317.93c0,0,6.659,10.242,7.273,15.671c0.615,5.429,1.229,10.857,1.229,10.857L657.306-317.93z
						"/>
				</g>
				<g>
					<path fill="#736357" d="M641.597-316.088c0,0,7.547,8.325,8.9,13.165c1.354,4.84,2.708,9.679,2.708,9.679L641.597-316.088z"/>
				</g>
				<g>
					<path fill="#736357" d="M627.203-322.38c0,0,7.244,14.128,7.316,21.228c0.071,7.1,0.144,14.2,0.144,14.2L627.203-322.38z"/>
				</g>
				<g>
					<path fill="#736357" d="M622.865-321.186c0,0,7.487,12.976,7.887,19.664c0.4,6.688,0.799,13.375,0.799,13.375L622.865-321.186z
						"/>
				</g>
				<g>
					<path fill="#736357" d="M611.536-324.637c0,0,1.835,17.654-0.962,25.083s-5.594,14.857-5.594,14.857L611.536-324.637z"/>
				</g>
				<g>
					<path fill="#736357" d="M592.268-319.356c0,0,1.446,12.96-0.566,18.433c-2.014,5.474-4.027,10.946-4.027,10.946
						L592.268-319.356z"/>
				</g>
				<g>
					<path fill="#736357" d="M576.25-320.118c0,0,6.42,12.296,6.529,18.499c0.109,6.202,0.218,12.405,0.218,12.405L576.25-320.118z"
						/>
				</g>
				<g>
					<path fill="#736357" d="M558.5-318.204c0,0,4.31,11.131,3.807,16.446c-0.502,5.314-1.005,10.628-1.005,10.628L558.5-318.204z"
						/>
				</g>
				<g>
					<path fill="#736357" d="M539.27-320.545c0,0,9.563,11.826,11.023,18.47s2.92,13.287,2.92,13.287L539.27-320.545z"/>
				</g>
				<g>
					<path fill="#736357" d="M526.366-319.616c0,0,7.896,11.438,8.767,17.591s1.741,12.308,1.741,12.308L526.366-319.616z"/>
				</g>
				<g>
					<path fill="#736357" d="M523.104-318.003c0,0,7.722,10.019,8.807,15.57c1.086,5.552,2.171,11.104,2.171,11.104L523.104-318.003
						z"/>
				</g>
				<g>
					<path fill="#736357" d="M506.424-323.751c0,0,7.663,15.259,7.676,22.896c0.013,7.636,0.025,15.273,0.025,15.273
						L506.424-323.751z"/>
				</g>
				<g>
					<path fill="#736357" d="M498.748-319.496c0,0,6.073,11.825,6.138,17.769c0.063,5.944,0.128,11.889,0.128,11.889
						L498.748-319.496z"/>
				</g>
				<g>
					<path fill="#736357" d="M487.303-321.589c0,0,6.051,13.733,5.725,20.438c-0.326,6.704-0.653,13.407-0.653,13.407
						L487.303-321.589z"/>
				</g>
				<g>
					<path fill="#736357" d="M466.479-319.115c0,0,5.122,11.738,4.824,17.458c-0.299,5.72-0.598,11.439-0.598,11.439
						L466.479-319.115z"/>
				</g>
				<g>
					<path fill="#736357" d="M449.32-316.614c0,0,7.138,8.915,8.21,13.908c1.072,4.993,2.145,9.987,2.145,9.987L449.32-316.614z"/>
				</g>
				<g>
					<path fill="#736357" d="M427.108-320.477c0,0,9.962,11.656,11.615,18.312s3.308,13.311,3.308,13.311L427.108-320.477z"/>
				</g>
				<g>
					<path fill="#736357" d="M423.898-323.571c0,0,2.639,16.465,0.402,23.58c-2.238,7.114-4.475,14.229-4.475,14.229
						L423.898-323.571z"/>
				</g>
				<g>
					<path fill="#736357" d="M407.637-318.465c0,0,9.611,9.923,11.471,15.814c1.86,5.892,3.721,11.783,3.721,11.783L407.637-318.465
						z"/>
				</g>
				<g>
					<path fill="#736357" d="M382.668-319.904c0,0,11.051,10.839,13.303,17.385c2.253,6.546,4.505,13.092,4.505,13.092
						L382.668-319.904z"/>
				</g>
				<g>
					<path fill="#736357" d="M378.445-318.363c0,0,3.716,11.438,2.914,16.756c-0.801,5.318-1.603,10.636-1.603,10.636
						L378.445-318.363z"/>
				</g>
				<g>
					<path fill="#736357" d="M359.645-319.666c0,0,4.322,12.457,3.561,18.304c-0.762,5.848-1.525,11.694-1.525,11.694
						L359.645-319.666z"/>
				</g>
				<g>
					<path fill="#736357" d="M354.87-317.088c0,0,2.558,10.595,1.462,15.344s-2.191,9.499-2.191,9.499L354.87-317.088z"/>
				</g>
				<g>
					<path fill="#736357" d="M333.32-323.645c0,0,7.885,15.103,8.018,22.721c0.134,7.618,0.267,15.236,0.267,15.236L333.32-323.645z
						"/>
				</g>
				<g>
					<path fill="#736357" d="M321.652-318.062c0,0,2.794,11.416,1.629,16.541c-1.166,5.125-2.332,10.25-2.332,10.25L321.652-318.062
						z"/>
				</g>
				<g>
					<path fill="#736357" d="M307.768-320.43c0,0,6.338,12.602,6.354,18.91c0.015,6.309,0.029,12.617,0.029,12.617L307.768-320.43z"
						/>
				</g>
				<g>
					<path fill="#736357" d="M291.629-320.016c0,0,4.23,12.8,3.363,18.766c-0.867,5.966-1.735,11.932-1.735,11.932L291.629-320.016z
						"/>
				</g>
				<g>
					<path fill="#736357" d="M270.007-317.454c0,0,8.794,9.227,10.467,14.676c1.672,5.449,3.345,10.898,3.345,10.898
						L270.007-317.454z"/>
				</g>
				<g>
					<path fill="#736357" d="M254.485-318.235c0,0,6.17,10.652,6.508,16.147c0.337,5.495,0.675,10.989,0.675,10.989L254.485-318.235
						z"/>
				</g>
				<g>
					<path fill="#736357" d="M229.84-324.606c0,0,9.441,15.552,10.107,23.662c0.666,8.109,1.332,16.218,1.332,16.218L229.84-324.606
						z"/>
				</g>
				<g>
					<path fill="#736357" d="M221.967-317.417c0,0,4.375,10.398,4.046,15.433s-0.658,10.069-0.658,10.069L221.967-317.417z"/>
				</g>
				<g>
					<path fill="#736357" d="M212.69-323.624c0,0,7.682,15.139,7.726,22.731c0.045,7.592,0.09,15.184,0.09,15.184L212.69-323.624z"
						/>
				</g>
				<g>
					<path fill="#736357" d="M198.277-319.05c0,0,5.689,11.524,5.66,17.271c-0.028,5.748-0.058,11.496-0.058,11.496L198.277-319.05z
						"/>
				</g>
				<g>
					<path fill="#736357" d="M182.594-317.854c0,0,1.114,11.685-0.777,16.582c-1.891,4.896-3.782,9.793-3.782,9.793L182.594-317.854
						z"/>
				</g>
				<g>
					<path fill="#736357" d="M164.172-319.021c0,0,5.747,11.482,5.749,17.225c0.003,5.742,0.005,11.484,0.005,11.484
						L164.172-319.021z"/>
				</g>
				<g>
					<path fill="#736357" d="M144.43-324.693c0,0,7.345,16.203,7.042,24.153s-0.605,15.9-0.605,15.9L144.43-324.693z"/>
				</g>
				<g>
					<path fill="#736357" d="M116.237-320.283c0,0,9.278,11.666,10.657,18.188s2.757,13.045,2.757,13.045L116.237-320.283z"/>
				</g>
				<g>
					<path fill="#736357" d="M110.92-326.195c0,0,6.171,17.888,5.062,26.278c-1.109,8.39-2.218,16.779-2.218,16.779L110.92-326.195z
						"/>
				</g>
				<g>
					<path fill="#736357" d="M95.329-320.257c0,0,9.514,11.579,11.003,18.113s2.979,13.069,2.979,13.069L95.329-320.257z"/>
				</g>
				<g>
					<path fill="#736357" d="M77.192-317.928c0,0,8.362,9.775,9.751,15.358s2.779,11.166,2.779,11.166L77.192-317.928z"/>
				</g>
				<g>
					<path fill="#736357" d="M69.885-320.168c0,0,5.199,12.675,4.744,18.784c-0.456,6.11-0.911,12.22-0.911,12.22L69.885-320.168z"
						/>
				</g>
				<g>
					<path fill="#736357" d="M62.694-317.939c0,0,6.418,10.315,6.923,15.726s1.009,10.82,1.009,10.82L62.694-317.939z"/>
				</g>
				<g>
					<path fill="#736357" d="M46.522-322.182c0,0,7.513,13.874,7.744,20.926c0.23,7.052,0.461,14.104,0.461,14.104L46.522-322.182z"
						/>
				</g>
				<g>
					<path fill="#736357" d="M34.553-320.416c0,0,3.606,13.334,2.381,19.389s-2.449,12.11-2.449,12.11L34.553-320.416z"/>
				</g>
				<g>
					<path fill="#736357" d="M26.53-321.704c0,0,5.907,13.878,5.495,20.61s-0.826,13.465-0.826,13.465L26.53-321.704z"/>
				</g>
				<g>
					<path fill="#736357" d="M21.926-325.181c0,0,4.829,17.333,3.294,25.231c-1.535,7.898-3.07,15.797-3.07,15.797L21.926-325.181z"
						/>
				</g>
				<g>
					<path fill="#736357" d="M14.867-321.688c0,0,3.738,14.455,2.343,20.985s-2.792,13.06-2.792,13.06L14.867-321.688z"/>
				</g>
				<g>
					<path fill="#736357" d="M-4.297-324.133c0,0,9.223,15.182,9.875,23.099C6.23-293.117,6.883-285.2,6.883-285.2L-4.297-324.133z"
						/>
				</g>
				<g>
					<path fill="#736357" d="M-15.271-324.651c0,0,6.383,16.427,5.65,24.274c-0.732,7.847-1.465,15.694-1.465,15.694
						L-15.271-324.651z"/>
				</g>
				<g>
					<path fill="#736357" d="M-42.916-319.627c0,0,11.123,10.568,13.458,17.02c2.335,6.451,4.671,12.903,4.671,12.903
						L-42.916-319.627z"/>
				</g>
				<g>
					<path fill="#736357" d="M-47.814-323.325c0,0,12.472,13.561,14.749,21.479c2.277,7.918,4.554,15.837,4.554,15.837
						L-47.814-323.325z"/>
				</g>
				<g>
					<path fill="#736357" d="M-62.161-320.334c0,0,7.596,12.171,8.199,18.559c0.604,6.388,1.208,12.775,1.208,12.775
						L-62.161-320.334z"/>
				</g>
				<g>
					<path fill="#736357" d="M-73.491-322.388c0,0,12.938,12.583,15.596,20.203c2.658,7.621,5.317,15.241,5.317,15.241
						L-73.491-322.388z"/>
				</g>
				<g>
					<path fill="#736357" d="M-75.671-320.584c0,0,10.375,11.642,12.197,18.374c1.821,6.731,3.644,13.463,3.644,13.463
						L-75.671-320.584z"/>
				</g>
				<g>
					<path fill="#736357" d="M-87.762-322.149c0,0,2.776,15.135,0.859,21.745c-1.917,6.609-3.833,13.218-3.833,13.218
						L-87.762-322.149z"/>
				</g>
				<g>
					<path fill="#736357" d="M-103.164-315.924c0,0,8.401,7.943,10.172,12.8c1.771,4.857,3.543,9.714,3.543,9.714L-103.164-315.924z
						"/>
				</g>
				<g>
					<path fill="#736357" d="M-123.886-320.067c0,0,6.626,12.193,6.838,18.396s0.424,12.405,0.424,12.405L-123.886-320.067z"/>
				</g>
				<g>
					<path fill="#736357" d="M-139.041-318.497c0,0,1.634,12.127-0.138,17.305c-1.772,5.178-3.544,10.355-3.544,10.355
						L-139.041-318.497z"/>
				</g>
				<g>
					<path fill="#736357" d="M-157.552-324.917c0,0,8.541,16.08,8.741,24.22s0.4,16.28,0.4,16.28L-157.552-324.917z"/>
				</g>
				<g>
					<path fill="#736357" d="M-172.741-319.076c0,0,7.469,11.063,8.243,16.982c0.775,5.918,1.55,11.837,1.55,11.837
						L-172.741-319.076z"/>
				</g>
				<g>
					<path fill="#736357" d="M-184.627-321.403c0,0,7.778,13.094,8.271,19.888c0.493,6.793,0.985,13.587,0.985,13.587
						L-184.627-321.403z"/>
				</g>
			</g>
		</g>
		<rect x="-264" y="-298" fill="#327828" width="1068" height="132"/>
		<g>
			<g>
				<g>
					<path fill="#8CC63F" d="M911.447-303.076c0,0,17.137,73.883,9.217,106.861c-7.922,32.98-15.842,65.959-15.842,65.959
						L911.447-303.076z"/>
				</g>
				<g>
					<path fill="#8CC63F" d="M791.304-262.08c0,0,29.832,33.15,35.135,52.377c5.302,19.225,10.604,38.451,10.604,38.451
						L791.304-262.08z"/>
				</g>
				<g>
					<path fill="#8CC63F" d="M695.032-273.607c0,0,35.385,42.115,41.115,66.037c5.731,23.922,11.462,47.844,11.462,47.844
						L695.032-273.607z"/>
				</g>
				<g>
					<path fill="#8CC63F" d="M641.571-273.772c0,0,23.031,45.634,23.116,68.493c0.086,22.859,0.171,45.719,0.171,45.719
						L641.571-273.772z"/>
				</g>
				<g>
					<path fill="#8CC63F" d="M592.865-277.381c0,0,26.54,47.959,27.564,72.449c1.024,24.492,2.049,48.982,2.049,48.982
						L592.865-277.381z"/>
				</g>
				<g>
					<path fill="#8CC63F" d="M483.539-289.244c0,0,45.125,53.674,52.439,84.17c7.316,30.494,14.631,60.988,14.631,60.988
						L483.539-289.244z"/>
				</g>
				<g>
					<path fill="#8CC63F" d="M466.615-272.16c0,0,25.849,43.4,27.509,65.93c1.658,22.529,3.318,45.059,3.318,45.059L466.615-272.16z
						"/>
				</g>
				<g>
					<path fill="#8CC63F" d="M396.104-290.697c0,0,14.947,63.223,8.281,91.502c-6.664,28.277-13.328,56.557-13.328,56.557
						L396.104-290.697z"/>
				</g>
				<g>
					<path fill="#8CC63F" d="M327.832-270.761c0,0,22.741,42.974,23.243,64.712c0.501,21.738,1.003,43.476,1.003,43.476
						L327.832-270.761z"/>
				</g>
				<g>
					<path fill="#8CC63F" d="M281.127-278.596c0,0,7.818,54.165,0.111,77.396c-7.705,23.23-15.41,46.461-15.41,46.461
						L281.127-278.596z"/>
				</g>
				<g>
					<path fill="#8CC63F" d="M240.667-270.576c0,0,18.568,43.944,17.206,65.234c-1.361,21.291-2.724,42.582-2.724,42.582
						L240.667-270.576z"/>
				</g>
				<g>
					<path fill="#8CC63F" d="M146.453-300.342c0,0,20.688,70.43,14.877,102.74c-5.811,32.309-11.621,64.619-11.621,64.619
						L146.453-300.342z"/>
				</g>
				<g>
					<path fill="#8CC63F" d="M43.26-291.092c0,0,38.26,57.225,42.119,87.768s7.719,61.082,7.719,61.082L43.26-291.092z"/>
				</g>
				<g>
					<path fill="#8CC63F" d="M-31.712-266.092c0,0,15.521,40.698,13.59,60.083c-1.931,19.383-3.862,38.768-3.862,38.768
						L-31.712-266.092z"/>
				</g>
				<g>
					<path fill="#8CC63F" d="M-148.008-288.801c0,0,42.127,54.088,48.16,84.148s12.067,60.119,12.067,60.119L-148.008-288.801z"/>
				</g>
				<g>
					<path fill="#8CC63F" d="M-157.725-279.67c0,0,16,52.913,11.816,77.276c-4.184,24.365-8.367,48.73-8.367,48.73L-157.725-279.67z
						"/>
				</g>
			</g>
		</g>
		<g>
			<g>
				<g>
					<path fill="#39B54A" d="M803.447-267.076c0,0,17.137,73.883,9.217,106.861c-7.922,32.98-15.842,65.959-15.842,65.959
						L803.447-267.076z"/>
				</g>
				<g>
					<path fill="#39B54A" d="M683.304-226.08c0,0,29.832,33.15,35.135,52.377c5.302,19.225,10.604,38.451,10.604,38.451
						L683.304-226.08z"/>
				</g>
				<g>
					<path fill="#39B54A" d="M587.032-237.607c0,0,35.385,42.115,41.115,66.037c5.731,23.922,11.462,47.844,11.462,47.844
						L587.032-237.607z"/>
				</g>
				<g>
					<path fill="#39B54A" d="M533.571-237.772c0,0,23.031,45.634,23.116,68.493c0.086,22.859,0.171,45.719,0.171,45.719
						L533.571-237.772z"/>
				</g>
				<g>
					<path fill="#39B54A" d="M484.865-241.381c0,0,26.54,47.959,27.564,72.449c1.024,24.492,2.049,48.982,2.049,48.982
						L484.865-241.381z"/>
				</g>
				<g>
					<path fill="#39B54A" d="M375.539-253.244c0,0,45.125,53.674,52.439,84.17c7.316,30.494,14.631,60.988,14.631,60.988
						L375.539-253.244z"/>
				</g>
				<g>
					<path fill="#39B54A" d="M358.615-236.16c0,0,25.849,43.4,27.509,65.93c1.658,22.529,3.318,45.059,3.318,45.059L358.615-236.16z
						"/>
				</g>
				<g>
					<path fill="#39B54A" d="M288.104-254.697c0,0,14.947,63.223,8.281,91.502c-6.664,28.277-13.328,56.557-13.328,56.557
						L288.104-254.697z"/>
				</g>
				<g>
					<path fill="#39B54A" d="M219.832-234.761c0,0,22.741,42.974,23.243,64.712c0.501,21.738,1.003,43.476,1.003,43.476
						L219.832-234.761z"/>
				</g>
				<g>
					<path fill="#39B54A" d="M173.127-242.596c0,0,7.818,54.165,0.111,77.396c-7.705,23.23-15.41,46.461-15.41,46.461
						L173.127-242.596z"/>
				</g>
				<g>
					<path fill="#39B54A" d="M132.667-234.576c0,0,18.568,43.944,17.206,65.234c-1.361,21.291-2.724,42.582-2.724,42.582
						L132.667-234.576z"/>
				</g>
				<g>
					<path fill="#39B54A" d="M38.453-264.342c0,0,20.688,70.43,14.877,102.74c-5.811,32.309-11.621,64.619-11.621,64.619
						L38.453-264.342z"/>
				</g>
				<g>
					<path fill="#39B54A" d="M-64.74-255.092c0,0,38.26,57.225,42.119,87.768s7.719,61.082,7.719,61.082L-64.74-255.092z"/>
				</g>
				<g>
					<path fill="#39B54A" d="M-139.712-230.092c0,0,15.521,40.698,13.59,60.083c-1.931,19.383-3.862,38.768-3.862,38.768
						L-139.712-230.092z"/>
				</g>
				<g>
					<path fill="#39B54A" d="M-256.008-252.801c0,0,42.127,54.088,48.16,84.148s12.067,60.119,12.067,60.119L-256.008-252.801z"/>
				</g>
				<g>
					<path fill="#39B54A" d="M-265.725-243.67c0,0,16,52.913,11.816,77.276c-4.184,24.365-8.367,48.73-8.367,48.73L-265.725-243.67z
						"/>
				</g>
			</g>
		</g>
		<g>
			<g>
				<g>
					<path fill="#327828" d="M795.549-318.424c0,0,11.844,17.156,13.149,26.387s2.612,18.462,2.612,18.462L795.549-318.424z"/>
				</g>
				<g>
					<path fill="#327828" d="M790.654-316.005c0,0,11.584,15.027,13.211,23.354c1.629,8.328,3.256,16.655,3.256,16.655
						L790.654-316.005z"/>
				</g>
				<g>
					<path fill="#327828" d="M765.637-324.627c0,0,11.492,22.89,11.512,34.345s0.038,22.91,0.038,22.91L765.637-324.627z"/>
				</g>
				<g>
					<path fill="#327828" d="M754.123-318.244c0,0,9.109,17.736,9.205,26.653c0.097,8.917,0.193,17.833,0.193,17.833
						L754.123-318.244z"/>
				</g>
				<g>
					<path fill="#327828" d="M736.953-321.384c0,0,9.076,20.601,8.587,30.657c-0.489,10.055-0.979,20.111-0.979,20.111
						L736.953-321.384z"/>
				</g>
				<g>
					<path fill="#327828" d="M705.72-317.673c0,0,7.684,17.607,7.235,26.187c-0.447,8.58-0.896,17.159-0.896,17.159L705.72-317.673z
						"/>
				</g>
				<g>
					<path fill="#327828" d="M679.98-313.921c0,0,10.707,13.371,12.315,20.861s3.217,14.98,3.217,14.98L679.98-313.921z"/>
				</g>
				<g>
					<path fill="#327828" d="M646.662-319.717c0,0,14.943,17.485,17.424,27.468s4.961,19.965,4.961,19.965L646.662-319.717z"/>
				</g>
				<g>
					<path fill="#327828" d="M641.847-324.356c0,0,3.959,24.698,0.604,35.37s-6.712,21.343-6.712,21.343L641.847-324.356z"/>
				</g>
				<g>
					<path fill="#327828" d="M617.455-316.697c0,0,14.416,14.884,17.207,23.721c2.789,8.837,5.579,17.675,5.579,17.675
						L617.455-316.697z"/>
				</g>
				<g>
					<path fill="#327828" d="M580.002-318.858c0,0,16.576,16.259,19.955,26.078c3.377,9.818,6.756,19.638,6.756,19.638
						L580.002-318.858z"/>
				</g>
				<g>
					<path fill="#327828" d="M573.668-316.543c0,0,5.574,17.156,4.371,25.133c-1.201,7.977-2.404,15.955-2.404,15.955
						L573.668-316.543z"/>
				</g>
				<g>
					<path fill="#327828" d="M545.467-318.499c0,0,6.484,18.686,5.341,27.456c-1.144,8.771-2.287,17.542-2.287,17.542
						L545.467-318.499z"/>
				</g>
				<g>
					<path fill="#327828" d="M538.305-314.632c0,0,3.838,15.892,2.193,23.017c-1.643,7.124-3.287,14.249-3.287,14.249
						L538.305-314.632z"/>
				</g>
				<g>
					<path fill="#327828" d="M505.98-324.468c0,0,11.828,22.654,12.027,34.082s0.399,22.854,0.399,22.854L505.98-324.468z"/>
				</g>
				<g>
					<path fill="#327828" d="M488.48-316.092c0,0,4.189,17.123,2.441,24.811s-3.498,15.375-3.498,15.375L488.48-316.092z"/>
				</g>
				<g>
					<path fill="#327828" d="M467.65-319.644c0,0,9.508,18.901,9.531,28.364c0.022,9.462,0.045,18.925,0.045,18.925L467.65-319.644z
						"/>
				</g>
				<g>
					<path fill="#327828" d="M443.443-319.023c0,0,6.346,19.2,5.045,28.148c-1.302,8.949-2.604,17.898-2.604,17.898L443.443-319.023
						z"/>
				</g>
				<g>
					<path fill="#327828" d="M411.01-315.181c0,0,13.191,13.839,15.701,22.013c2.508,8.175,5.017,16.349,5.017,16.349
						L411.01-315.181z"/>
				</g>
				<g>
					<path fill="#327828" d="M387.729-316.353c0,0,9.255,15.979,9.762,24.221c0.506,8.242,1.012,16.484,1.012,16.484
						L387.729-316.353z"/>
				</g>
				<g>
					<path fill="#327828" d="M350.759-325.91c0,0,14.161,23.328,15.161,35.492c0.998,12.164,1.997,24.327,1.997,24.327
						L350.759-325.91z"/>
				</g>
				<g>
					<path fill="#327828" d="M338.95-315.126c0,0,6.563,15.598,6.069,23.149c-0.494,7.551-0.987,15.103-0.987,15.103L338.95-315.126
						z"/>
				</g>
				<g>
					<path fill="#327828" d="M325.035-324.435c0,0,11.522,22.708,11.59,34.096c0.066,11.388,0.134,22.775,0.134,22.775
						L325.035-324.435z"/>
				</g>
				<g>
					<path fill="#327828" d="M303.415-317.576c0,0,8.534,17.287,8.491,25.908s-0.086,17.243-0.086,17.243L303.415-317.576z"/>
				</g>
				<g>
					<path fill="#327828" d="M279.891-315.781c0,0,1.672,17.527-1.166,24.873c-2.836,7.345-5.674,14.689-5.674,14.689
						L279.891-315.781z"/>
				</g>
				<g>
					<path fill="#327828" d="M252.26-317.532c0,0,8.619,17.224,8.623,25.837c0.002,8.614,0.006,17.227,0.006,17.227L252.26-317.532z
						"/>
				</g>
				<g>
					<path fill="#327828" d="M222.646-326.041c0,0,11.018,24.305,10.563,36.23c-0.453,11.925-0.907,23.851-0.907,23.851
						L222.646-326.041z"/>
				</g>
				<g>
					<path fill="#327828" d="M180.355-319.425c0,0,13.92,17.499,15.987,27.282s4.136,19.566,4.136,19.566L180.355-319.425z"/>
				</g>
				<g>
					<path fill="#327828" d="M172.38-328.292c0,0,9.257,26.833,7.593,39.417s-3.327,25.169-3.327,25.169L172.38-328.292z"/>
				</g>
				<g>
					<path fill="#327828" d="M148.993-319.387c0,0,14.271,17.368,16.505,27.17s4.469,19.603,4.469,19.603L148.993-319.387z"/>
				</g>
				<g>
					<path fill="#327828" d="M121.788-315.894c0,0,12.543,14.664,14.627,23.038c2.084,8.375,4.169,16.749,4.169,16.749
						L121.788-315.894z"/>
				</g>
				<g>
					<path fill="#327828" d="M110.827-319.253c0,0,7.799,19.012,7.116,28.177s-1.366,18.329-1.366,18.329L110.827-319.253z"/>
				</g>
				<g>
					<path fill="#327828" d="M100.042-315.909c0,0,9.628,15.474,10.384,23.588s1.513,16.23,1.513,16.23L100.042-315.909z"/>
				</g>
				<g>
					<path fill="#327828" d="M75.783-322.272c0,0,11.27,20.811,11.615,31.389s0.691,21.156,0.691,21.156L75.783-322.272z"/>
				</g>
				<g>
					<path fill="#327828" d="M57.83-319.625c0,0,5.409,20.001,3.572,29.083s-3.674,18.165-3.674,18.165L57.83-319.625z"/>
				</g>
				<g>
					<path fill="#327828" d="M45.795-321.556c0,0,8.861,20.816,8.242,30.915s-1.238,20.197-1.238,20.197L45.795-321.556z"/>
				</g>
				<g>
					<path fill="#327828" d="M38.889-326.772c0,0,7.243,25.999,4.941,37.847c-2.303,11.848-4.604,23.696-4.604,23.696
						L38.889-326.772z"/>
				</g>
				<g>
					<path fill="#327828" d="M28.301-321.534c0,0,5.608,21.683,3.514,31.478s-4.187,19.589-4.187,19.589L28.301-321.534z"/>
				</g>
				<g>
					<path fill="#327828" d="M-0.446-325.2c0,0,13.833,22.771,14.812,34.647c0.979,11.876,1.958,23.752,1.958,23.752L-0.446-325.2z"
						/>
				</g>
				<g>
					<path fill="#327828" d="M-16.908-325.977c0,0,9.573,24.641,8.475,36.411s-2.197,23.542-2.197,23.542L-16.908-325.977z"/>
				</g>
				<g>
					<path fill="#327828" d="M-58.374-318.441c0,0,16.683,15.852,20.187,25.528c3.503,9.678,7.006,19.354,7.006,19.354
						L-58.374-318.441z"/>
				</g>
				<g>
					<path fill="#327828" d="M-65.721-323.987c0,0,18.708,20.341,22.124,32.219c3.415,11.878,6.83,23.756,6.83,23.756
						L-65.721-323.987z"/>
				</g>
				<g>
					<path fill="#327828" d="M-87.243-319.501c0,0,11.394,18.257,12.299,27.839c0.906,9.582,1.812,19.164,1.812,19.164
						L-87.243-319.501z"/>
				</g>
				<g>
					<path fill="#327828" d="M-104.236-322.582c0,0,19.406,18.874,23.394,30.305c3.988,11.432,7.976,22.862,7.976,22.862
						L-104.236-322.582z"/>
				</g>
				<g>
					<path fill="#327828" d="M-107.507-319.878c0,0,15.563,17.463,18.296,27.561c2.732,10.098,5.465,20.195,5.465,20.195
						L-107.507-319.878z"/>
				</g>
				<g>
					<path fill="#327828" d="M-125.643-322.223c0,0,4.163,22.702,1.289,32.616c-2.875,9.914-5.75,19.828-5.75,19.828
						L-125.643-322.223z"/>
				</g>
				<g>
					<path fill="#327828" d="M-148.745-312.886c0,0,12.601,11.915,15.258,19.201c2.657,7.286,5.314,14.572,5.314,14.572
						L-148.745-312.886z"/>
				</g>
				<g>
					<path fill="#327828" d="M-179.831-319.101c0,0,9.94,18.29,10.258,27.594c0.318,9.304,0.636,18.608,0.636,18.608
						L-179.831-319.101z"/>
				</g>
				<g>
					<path fill="#327828" d="M-202.562-316.745c0,0,2.451,18.191-0.207,25.958c-2.658,7.767-5.315,15.533-5.315,15.533
						L-202.562-316.745z"/>
				</g>
				<g>
					<path fill="#327828" d="M-230.326-326.375c0,0,12.811,24.121,13.111,36.331s0.601,24.42,0.601,24.42L-230.326-326.375z"/>
				</g>
				<g>
					<path fill="#327828" d="M-253.111-317.615c0,0,11.202,16.594,12.364,25.473c1.162,8.878,2.324,17.756,2.324,17.756
						L-253.111-317.615z"/>
				</g>
				<g>
					<path fill="#327828" d="M-270.942-321.106c0,0,11.668,19.643,12.407,29.832c0.739,10.19,1.478,20.381,1.478,20.381
						L-270.942-321.106z"/>
				</g>
			</g>
		</g>
		<g>
			<g>
				<g>
					<path fill="#327828" d="M435.549-330.424c0,0,11.844,17.156,13.149,26.387s2.612,18.462,2.612,18.462L435.549-330.424z"/>
				</g>
				<g>
					<path fill="#327828" d="M430.654-328.005c0,0,11.584,15.027,13.211,23.354c1.629,8.328,3.256,16.655,3.256,16.655
						L430.654-328.005z"/>
				</g>
				<g>
					<path fill="#327828" d="M405.637-336.627c0,0,11.492,22.89,11.512,34.345s0.038,22.91,0.038,22.91L405.637-336.627z"/>
				</g>
				<g>
					<path fill="#327828" d="M394.123-330.244c0,0,9.109,17.736,9.205,26.653c0.097,8.917,0.193,17.833,0.193,17.833
						L394.123-330.244z"/>
				</g>
				<g>
					<path fill="#327828" d="M376.953-333.384c0,0,9.076,20.601,8.587,30.657c-0.489,10.055-0.979,20.111-0.979,20.111
						L376.953-333.384z"/>
				</g>
				<g>
					<path fill="#327828" d="M345.72-329.673c0,0,7.684,17.607,7.235,26.187c-0.447,8.58-0.896,17.159-0.896,17.159L345.72-329.673z
						"/>
				</g>
				<g>
					<path fill="#327828" d="M319.98-325.921c0,0,10.707,13.371,12.315,20.861s3.217,14.98,3.217,14.98L319.98-325.921z"/>
				</g>
				<g>
					<path fill="#327828" d="M286.662-331.717c0,0,14.943,17.485,17.424,27.468s4.961,19.965,4.961,19.965L286.662-331.717z"/>
				</g>
				<g>
					<path fill="#327828" d="M281.847-336.356c0,0,3.959,24.698,0.604,35.37s-6.712,21.343-6.712,21.343L281.847-336.356z"/>
				</g>
				<g>
					<path fill="#327828" d="M257.455-328.697c0,0,14.416,14.884,17.207,23.721c2.789,8.837,5.579,17.675,5.579,17.675
						L257.455-328.697z"/>
				</g>
				<g>
					<path fill="#327828" d="M220.002-330.858c0,0,16.576,16.259,19.955,26.078c3.377,9.818,6.756,19.638,6.756,19.638
						L220.002-330.858z"/>
				</g>
				<g>
					<path fill="#327828" d="M213.668-328.543c0,0,5.574,17.156,4.371,25.133c-1.201,7.977-2.404,15.955-2.404,15.955
						L213.668-328.543z"/>
				</g>
				<g>
					<path fill="#327828" d="M185.467-330.499c0,0,6.484,18.686,5.341,27.456c-1.144,8.771-2.287,17.542-2.287,17.542
						L185.467-330.499z"/>
				</g>
				<g>
					<path fill="#327828" d="M178.305-326.632c0,0,3.838,15.892,2.193,23.017c-1.643,7.124-3.287,14.249-3.287,14.249
						L178.305-326.632z"/>
				</g>
				<g>
					<path fill="#327828" d="M145.981-336.468c0,0,11.828,22.654,12.027,34.082s0.399,22.854,0.399,22.854L145.981-336.468z"/>
				</g>
				<g>
					<path fill="#327828" d="M128.48-328.092c0,0,4.19,17.123,2.441,24.811c-1.748,7.688-3.497,15.375-3.497,15.375L128.48-328.092z
						"/>
				</g>
				<g>
					<path fill="#327828" d="M107.65-331.644c0,0,9.508,18.901,9.531,28.364c0.022,9.462,0.045,18.925,0.045,18.925L107.65-331.644z
						"/>
				</g>
				<g>
					<path fill="#327828" d="M83.444-331.023c0,0,6.346,19.2,5.044,28.148c-1.301,8.949-2.603,17.898-2.603,17.898L83.444-331.023z"
						/>
				</g>
				<g>
					<path fill="#327828" d="M51.01-327.181c0,0,13.191,13.839,15.7,22.013c2.508,8.175,5.017,16.349,5.017,16.349L51.01-327.181z"
						/>
				</g>
				<g>
					<path fill="#327828" d="M27.729-328.353c0,0,9.254,15.979,9.761,24.221s1.012,16.484,1.012,16.484L27.729-328.353z"/>
				</g>
				<g>
					<path fill="#327828" d="M-9.241-337.91c0,0,14.162,23.328,15.161,35.492c0.999,12.164,1.998,24.327,1.998,24.327L-9.241-337.91
						z"/>
				</g>
				<g>
					<path fill="#327828" d="M-21.05-327.126c0,0,6.563,15.598,6.07,23.149c-0.494,7.551-0.988,15.103-0.988,15.103L-21.05-327.126z
						"/>
				</g>
				<g>
					<path fill="#327828" d="M-34.965-336.435c0,0,11.522,22.708,11.589,34.096s0.134,22.775,0.134,22.775L-34.965-336.435z"/>
				</g>
				<g>
					<path fill="#327828" d="M-56.585-329.576c0,0,8.535,17.287,8.491,25.908s-0.086,17.243-0.086,17.243L-56.585-329.576z"/>
				</g>
				<g>
					<path fill="#327828" d="M-80.109-327.781c0,0,1.671,17.527-1.166,24.873c-2.837,7.345-5.674,14.689-5.674,14.689
						L-80.109-327.781z"/>
				</g>
				<g>
					<path fill="#327828" d="M-107.741-329.532c0,0,8.62,17.224,8.623,25.837c0.003,8.614,0.006,17.227,0.006,17.227
						L-107.741-329.532z"/>
				</g>
				<g>
					<path fill="#327828" d="M-137.354-338.041c0,0,11.018,24.305,10.563,36.23c-0.453,11.925-0.907,23.851-0.907,23.851
						L-137.354-338.041z"/>
				</g>
				<g>
					<path fill="#327828" d="M-179.644-331.425c0,0,13.919,17.499,15.987,27.282s4.135,19.566,4.135,19.566L-179.644-331.425z"/>
				</g>
				<g>
					<path fill="#327828" d="M-187.62-340.292c0,0,9.257,26.833,7.593,39.417s-3.327,25.169-3.327,25.169L-187.62-340.292z"/>
				</g>
				<g>
					<path fill="#327828" d="M-211.007-331.387c0,0,14.271,17.368,16.505,27.17c2.235,9.802,4.469,19.603,4.469,19.603
						L-211.007-331.387z"/>
				</g>
				<g>
					<path fill="#327828" d="M-238.212-327.894c0,0,12.543,14.664,14.627,23.038c2.084,8.375,4.169,16.749,4.169,16.749
						L-238.212-327.894z"/>
				</g>
				<g>
					<path fill="#327828" d="M-249.173-331.253c0,0,7.799,19.012,7.116,28.177s-1.366,18.329-1.366,18.329L-249.173-331.253z"/>
				</g>
				<g>
					<path fill="#327828" d="M-259.958-327.909c0,0,9.628,15.474,10.384,23.588s1.513,16.23,1.513,16.23L-259.958-327.909z"/>
				</g>
				<g>
					<path fill="#327828" d="M-284.217-334.272c0,0,11.27,20.811,11.615,31.389s0.691,21.156,0.691,21.156L-284.217-334.272z"/>
				</g>
				<g>
					<path fill="#327828" d="M-302.17-331.625c0,0,5.409,20.001,3.572,29.083s-3.674,18.165-3.674,18.165L-302.17-331.625z"/>
				</g>
				<g>
					<path fill="#327828" d="M-314.205-333.556c0,0,8.861,20.816,8.242,30.915s-1.238,20.197-1.238,20.197L-314.205-333.556z"/>
				</g>
				<g>
					<path fill="#327828" d="M-321.111-338.772c0,0,7.243,25.999,4.941,37.847c-2.303,11.848-4.604,23.696-4.604,23.696
						L-321.111-338.772z"/>
				</g>
				<g>
					<path fill="#327828" d="M-331.699-333.534c0,0,5.608,21.683,3.514,31.478s-4.187,19.589-4.187,19.589L-331.699-333.534z"/>
				</g>
				<g>
					<path fill="#327828" d="M-360.446-337.2c0,0,13.833,22.771,14.812,34.647c0.979,11.876,1.958,23.752,1.958,23.752
						L-360.446-337.2z"/>
				</g>
				<g>
					<path fill="#327828" d="M-376.908-337.977c0,0,9.573,24.641,8.475,36.411s-2.197,23.542-2.197,23.542L-376.908-337.977z"/>
				</g>
				<g>
					<path fill="#327828" d="M-418.374-330.441c0,0,16.683,15.852,20.187,25.528c3.503,9.678,7.006,19.354,7.006,19.354
						L-418.374-330.441z"/>
				</g>
				<g>
					<path fill="#327828" d="M-425.721-335.987c0,0,18.708,20.341,22.124,32.219c3.415,11.878,6.83,23.756,6.83,23.756
						L-425.721-335.987z"/>
				</g>
				<g>
					<path fill="#327828" d="M-447.243-331.501c0,0,11.394,18.257,12.299,27.839c0.906,9.582,1.812,19.164,1.812,19.164
						L-447.243-331.501z"/>
				</g>
				<g>
					<path fill="#327828" d="M-464.236-334.582c0,0,19.406,18.874,23.394,30.305c3.988,11.432,7.976,22.862,7.976,22.862
						L-464.236-334.582z"/>
				</g>
				<g>
					<path fill="#327828" d="M-467.507-331.878c0,0,15.563,17.463,18.296,27.561c2.732,10.098,5.465,20.195,5.465,20.195
						L-467.507-331.878z"/>
				</g>
				<g>
					<path fill="#327828" d="M-485.642-334.223c0,0,4.163,22.702,1.289,32.616c-2.875,9.914-5.75,19.828-5.75,19.828
						L-485.642-334.223z"/>
				</g>
				<g>
					<path fill="#327828" d="M-508.745-324.886c0,0,12.601,11.915,15.258,19.201c2.657,7.286,5.314,14.572,5.314,14.572
						L-508.745-324.886z"/>
				</g>
				<g>
					<path fill="#327828" d="M-539.831-331.101c0,0,9.94,18.29,10.258,27.594c0.318,9.304,0.636,18.608,0.636,18.608
						L-539.831-331.101z"/>
				</g>
				<g>
					<path fill="#327828" d="M-562.562-328.745c0,0,2.451,18.191-0.207,25.958c-2.658,7.767-5.315,15.533-5.315,15.533
						L-562.562-328.745z"/>
				</g>
				<g>
					<path fill="#327828" d="M-590.326-338.375c0,0,12.811,24.121,13.111,36.331s0.601,24.42,0.601,24.42L-590.326-338.375z"/>
				</g>
				<g>
					<path fill="#327828" d="M-613.111-329.615c0,0,11.202,16.594,12.364,25.473c1.162,8.878,2.324,17.756,2.324,17.756
						L-613.111-329.615z"/>
				</g>
				<g>
					<path fill="#327828" d="M-630.942-333.106c0,0,11.668,19.643,12.407,29.832c0.739,10.19,1.478,20.381,1.478,20.381
						L-630.942-333.106z"/>
				</g>
			</g>
		</g>
		<g>
			<g>
				<g>
					<path fill="#8CC63F" d="M719.343-262.743c0,0,11.62,12.147,13.839,19.331c2.218,7.183,4.437,14.366,4.437,14.366
						L719.343-262.743z"/>
				</g>
				<g>
					<path fill="#8CC63F" d="M708.363-268.401c0,0,9.742,23.258,8.987,34.509s-1.51,22.503-1.51,22.503L708.363-268.401z"/>
				</g>
				<g>
					<path fill="#8CC63F" d="M677.743-253.726c0,0,11.024,19.25,11.583,29.155c0.56,9.905,1.119,19.81,1.119,19.81L677.743-253.726z
						"/>
				</g>
				<g>
					<path fill="#8CC63F" d="M661.035-250.932c0,0,6.95,25.726,4.585,37.407c-2.364,11.681-4.729,23.36-4.729,23.36L661.035-250.932
						z"/>
				</g>
				<g>
					<path fill="#8CC63F" d="M630.293-236.332c0,0,5.525,22.799,3.176,33.023s-4.699,20.449-4.699,20.449L630.293-236.332z"/>
				</g>
				<g>
					<path fill="#8CC63F" d="M616.341-230.296c0,0,12.362,16.751,13.957,25.924c1.595,9.173,3.189,18.346,3.189,18.346
						L616.341-230.296z"/>
				</g>
				<g>
					<path fill="#8CC63F" d="M597.781-221.48c0,0,4.556,16.483,3.081,23.987s-2.948,15.009-2.948,15.009L597.781-221.48z"/>
				</g>
				<g>
					<path fill="#8CC63F" d="M590.463-229.527c0,0,5.016,23.198,2.383,33.48c-2.633,10.283-5.267,20.565-5.267,20.565
						L590.463-229.527z"/>
				</g>
				<g>
					<path fill="#8CC63F" d="M556.445-236.219c0,0,13.568,25.101,13.977,37.854c0.408,12.754,0.816,25.508,0.816,25.508
						L556.445-236.219z"/>
				</g>
				<g>
					<path fill="#8CC63F" d="M538.78-229.762c0,0,10.435,18.374,10.933,27.81c0.499,9.437,0.998,18.873,0.998,18.873L538.78-229.762
						z"/>
				</g>
				<g>
					<path fill="#8CC63F" d="M517.531-227.44c0,0,14.639,13.699,17.754,22.106c3.115,8.408,6.23,16.815,6.23,16.815L517.531-227.44z
						"/>
				</g>
				<g>
					<path fill="#8CC63F" d="M510.399-238.73c0,0,7.202,24.214,5.24,35.34c-1.963,11.127-3.925,22.253-3.925,22.253L510.399-238.73z
						"/>
				</g>
				<g>
					<path fill="#8CC63F" d="M484.586-239.703c0,0,15.332,21.373,17.189,32.988s3.716,23.23,3.716,23.23L484.586-239.703z"/>
				</g>
				<g>
					<path fill="#8CC63F" d="M479.834-229.65c0,0,10.225,12.906,11.733,20.113s3.018,14.414,3.018,14.414L479.834-229.65z"/>
				</g>
				<g>
					<path fill="#8CC63F" d="M463.578-236.839c0,0,15.217,17.129,17.878,27.024s5.321,19.79,5.321,19.79L463.578-236.839z"/>
				</g>
				<g>
					<path fill="#8CC63F" d="M444.935-234.049c0,0,11.278,17.703,12.249,27.041c0.971,9.337,1.941,18.674,1.941,18.674
						L444.935-234.049z"/>
				</g>
				<g>
					<path fill="#8CC63F" d="M436.617-227.367c0,0,7.44,14.99,7.418,22.474c-0.021,7.483-0.044,14.967-0.044,14.967L436.617-227.367
						z"/>
				</g>
				<g>
					<path fill="#8CC63F" d="M422.361-226.126c0,0,11.064,14.927,12.506,23.111s2.881,16.368,2.881,16.368L422.361-226.126z"/>
				</g>
				<g>
					<path fill="#8CC63F" d="M410.145-225.648c0,0,3.158,21.253,0.17,30.386c-2.986,9.133-5.975,18.266-5.975,18.266
						L410.145-225.648z"/>
				</g>
				<g>
					<path fill="#8CC63F" d="M366.311-212.283c0,0,11.828,12.948,13.97,20.493c2.142,7.545,4.283,15.09,4.283,15.09L366.311-212.283
						z"/>
				</g>
				<g>
					<path fill="#8CC63F" d="M369.303-214.791c0,0,2.975,19.205,0.324,27.482c-2.65,8.277-5.301,16.554-5.301,16.554
						L369.303-214.791z"/>
				</g>
				<g>
					<path fill="#8CC63F" d="M349.996-220.207c0,0,9.068,25.074,7.682,36.917c-1.387,11.844-2.774,23.688-2.774,23.688
						L349.996-220.207z"/>
				</g>
				<g>
					<path fill="#8CC63F" d="M334.308-218.378c0,0,11.157,25.205,10.579,37.519c-0.578,12.312-1.156,24.626-1.156,24.626
						L334.308-218.378z"/>
				</g>
				<g>
					<path fill="#8CC63F" d="M332.604-212.156c0,0,5.253,22.317,2.891,32.294c-2.362,9.978-4.725,19.955-4.725,19.955
						L332.604-212.156z"/>
				</g>
				<g>
					<path fill="#8CC63F" d="M306.582-208.757c0,0,12.378,20.046,13.32,30.54c0.941,10.494,1.883,20.988,1.883,20.988
						L306.582-208.757z"/>
				</g>
				<g>
					<path fill="#8CC63F" d="M291.678-210.13c0,0,3.479,27.192-0.568,38.765c-4.048,11.572-8.095,23.145-8.095,23.145
						L291.678-210.13z"/>
				</g>
				<g>
					<path fill="#8CC63F" d="M240.51-205.767c0,0,16.541,22.346,18.688,34.592c2.147,12.246,4.295,24.492,4.295,24.492
						L240.51-205.767z"/>
				</g>
				<g>
					<path fill="#8CC63F" d="M209.656-202.422c0,0,13.508,15.375,15.836,24.227c2.329,8.852,4.657,17.703,4.657,17.703
						L209.656-202.422z"/>
				</g>
				<g>
					<path fill="#8CC63F" d="M192.398-222.541c0,0,5.577,25.229,2.762,36.436c-2.815,11.207-5.63,22.414-5.63,22.414
						L192.398-222.541z"/>
				</g>
				<g>
					<path fill="#8CC63F" d="M165.199-224.609c0,0,13.481,17.906,15.293,27.764c1.812,9.859,3.623,19.718,3.623,19.718
						L165.199-224.609z"/>
				</g>
				<g>
					<path fill="#8CC63F" d="M161.779-230.464c0,0,1.938,19.344-1.156,27.469s-6.187,16.25-6.187,16.25L161.779-230.464z"/>
				</g>
				<g>
					<path fill="#8CC63F" d="M124.468-253.943c0,0,7.43,27.042,4.992,39.345c-2.437,12.303-4.873,24.605-4.873,24.605
						L124.468-253.943z"/>
				</g>
				<g>
					<path fill="#8CC63F" d="M98.18-248.382c0,0,16.299,15.745,19.67,25.303s6.742,19.116,6.742,19.116L98.18-248.382z"/>
				</g>
				<g>
					<path fill="#8CC63F" d="M60.777-239.733c0,0,12.36,11.803,14.944,18.996c2.583,7.193,5.167,14.387,5.167,14.387L60.777-239.733
						z"/>
				</g>
				<g>
					<path fill="#8CC63F" d="M52.542-241.33c0,0,12.101,15.254,13.891,23.776c1.79,8.521,3.579,17.043,3.579,17.043L52.542-241.33z"
						/>
				</g>
				<g>
					<path fill="#8CC63F" d="M37.844-236.57c0,0,10.956,13.631,12.612,21.274s3.312,15.287,3.312,15.287L37.844-236.57z"/>
				</g>
				<g>
					<path fill="#8CC63F" d="M21.307-240.068c0,0,6.549,21.268,4.915,31.084s-3.268,19.634-3.268,19.634L21.307-240.068z"/>
				</g>
				<g>
					<path fill="#8CC63F" d="M-21.095-236.808c0,0,18.459,18.478,22.147,29.56c3.688,11.082,7.377,22.164,7.377,22.164
						L-21.095-236.808z"/>
				</g>
				<g>
					<path fill="#8CC63F" d="M-25.654-235.181c0,0,4.166,23.144,1.205,33.235c-2.963,10.091-5.924,20.182-5.924,20.182
						L-25.654-235.181z"/>
				</g>
				<g>
					<path fill="#8CC63F" d="M-63.642-226.176c0,0,3.287,18.625,0.876,26.732c-2.41,8.107-4.82,16.214-4.82,16.214L-63.642-226.176z
						"/>
				</g>
				<g>
					<path fill="#8CC63F" d="M-90.914-233.273c0,0,12.45,24.156,12.599,36.309c0.149,12.152,0.298,24.304,0.298,24.304
						L-90.914-233.273z"/>
				</g>
				<g>
					<path fill="#8CC63F" d="M-105.095-219.795c0,0,7.863,14.174,8.173,21.417s0.62,14.484,0.62,14.484L-105.095-219.795z"/>
				</g>
				<g>
					<path fill="#8CC63F" d="M-125.074-226.179c0,0,17.918,17.864,21.513,28.595c3.595,10.729,7.189,21.459,7.189,21.459
						L-125.074-226.179z"/>
				</g>
				<g>
					<path fill="#8CC63F" d="M-143.212-231.953c0,0,10.18,26.641,8.924,39.334c-1.257,12.692-2.513,25.386-2.513,25.386
						L-143.212-231.953z"/>
				</g>
				<g>
					<path fill="#8CC63F" d="M-156.938-226.362c0,0,6.109,23.251,3.903,33.773c-2.206,10.522-4.413,21.045-4.413,21.045
						L-156.938-226.362z"/>
				</g>
				<g>
					<path fill="#8CC63F" d="M-163.237-228.377c0,0,6.503,25.168,4.071,36.536c-2.433,11.368-4.865,22.736-4.865,22.736
						L-163.237-228.377z"/>
				</g>
				<g>
					<path fill="#8CC63F" d="M-201.855-227.171c0,0,18.489,20.479,21.79,32.367c3.3,11.89,6.6,23.778,6.6,23.778L-201.855-227.171z"
						/>
				</g>
				<g>
					<path fill="#8CC63F" d="M-223.625-227.421c0,0,13.408,19.592,14.854,30.11c1.445,10.518,2.89,21.036,2.89,21.036
						L-223.625-227.421z"/>
				</g>
			</g>
		</g>
	</g>
	<rect x="-130" y="-384" clip-path="url(#SVGID_2_)" fill="none" width="648" height="324"/>
</g>
<g>
	<defs>
		<rect id="SVGID_3_" width="634" height="202.126"/>
	</defs>
	<clipPath id="SVGID_4_">
		<use xlink:href="#SVGID_3_"  overflow="visible"/>
	</clipPath>
	<g clip-path="url(#SVGID_4_)">
		<g>
			<g>
				<g>
					<path fill="#736357" d="M997.998,53.969c0,0,6.629,8.638,7.553,13.419c0.924,4.781,1.848,9.562,1.848,9.562L997.998,53.969z"/>
				</g>
				<g>
					<path fill="#736357" d="M996.037,52.883c0,0,5.527,9.925,5.754,15c0.226,5.076,0.452,10.151,0.452,10.151L996.037,52.883z"/>
				</g>
				<g>
					<path fill="#736357" d="M985.716,52.346c0,0,7.387,9.906,8.36,15.347s1.947,10.88,1.947,10.88L985.716,52.346z"/>
				</g>
				<g>
					<path fill="#736357" d="M959.24,53.104c0,0,8.672,8.867,10.367,14.148s3.391,10.562,3.391,10.562L959.24,53.104z"/>
				</g>
				<g>
					<path fill="#736357" d="M959.499,48.719c0,0,6.058,13.566,5.769,20.205c-0.29,6.638-0.58,13.276-0.58,13.276L959.499,48.719z"
						/>
				</g>
				<g>
					<path fill="#736357" d="M946.941,46.016c0,0,6.79,15.824,6.342,23.512c-0.449,7.688-0.897,15.375-0.897,15.375L946.941,46.016z
						"/>
				</g>
				<g>
					<path fill="#736357" d="M939.938,49.557c0,0,7.479,12.417,7.987,18.879c0.508,6.462,1.016,12.925,1.016,12.925L939.938,49.557z
						"/>
				</g>
				<g>
					<path fill="#736357" d="M928.401,51.628c0,0,3.256,11.686,2.221,17.012c-1.034,5.325-2.069,10.651-2.069,10.651L928.401,51.628
						z"/>
				</g>
				<g>
					<path fill="#736357" d="M909.344,49.814c0,0,3.387,13.299,2.08,19.296c-1.305,5.997-2.61,11.993-2.61,11.993L909.344,49.814z"
						/>
				</g>
				<g>
					<path fill="#736357" d="M880.894,46.738c0,0,13.34,13.381,16,21.401s5.32,16.041,5.32,16.041L880.894,46.738z"/>
				</g>
				<g>
					<path fill="#736357" d="M877.877,46.115c0,0,9.243,15.065,9.928,22.94c0.684,7.874,1.367,15.749,1.367,15.749L877.877,46.115z"
						/>
				</g>
				<g>
					<path fill="#736357" d="M859.51,50.588c0,0,6.954,11.623,7.411,17.663c0.456,6.04,0.913,12.08,0.913,12.08L859.51,50.588z"/>
				</g>
				<g>
					<path fill="#736357" d="M832.907,54.776c0,0,7.846,7.573,9.469,12.17c1.624,4.598,3.248,9.196,3.248,9.196L832.907,54.776z"/>
				</g>
				<g>
					<path fill="#736357" d="M835.924,50.965c0,0,2.912,12.382,1.601,17.918c-1.312,5.535-2.623,11.071-2.623,11.071L835.924,50.965
						z"/>
				</g>
				<g>
					<path fill="#736357" d="M811.32,47.872c0,0,7.213,14.021,7.294,21.072c0.081,7.051,0.163,14.102,0.163,14.102L811.32,47.872z"
						/>
				</g>
				<g>
					<path fill="#736357" d="M799.746,45.577c0,0,11.311,14.991,12.838,23.249c1.525,8.258,3.052,16.517,3.052,16.517
						L799.746,45.577z"/>
				</g>
				<g>
					<path fill="#736357" d="M800.945,47.512c0,0,6.373,14.578,6.006,21.684s-0.732,14.211-0.732,14.211L800.945,47.512z"/>
				</g>
				<g>
					<path fill="#736357" d="M780.602,51.927c0,0,8.262,10.049,9.557,15.721s2.59,11.344,2.59,11.344L780.602,51.927z"/>
				</g>
				<g>
					<path fill="#736357" d="M775.306,52.196c0,0,6.659,10.242,7.273,15.671c0.615,5.429,1.229,10.857,1.229,10.857L775.306,52.196z
						"/>
				</g>
				<g>
					<path fill="#736357" d="M759.597,54.038c0,0,7.547,8.325,8.9,13.165c1.354,4.84,2.708,9.679,2.708,9.679L759.597,54.038z"/>
				</g>
				<g>
					<path fill="#736357" d="M745.203,47.746c0,0,7.244,14.128,7.316,21.228c0.071,7.1,0.144,14.2,0.144,14.2L745.203,47.746z"/>
				</g>
				<g>
					<path fill="#736357" d="M740.865,48.94c0,0,7.487,12.976,7.887,19.664c0.4,6.688,0.799,13.375,0.799,13.375L740.865,48.94z"/>
				</g>
				<g>
					<path fill="#736357" d="M729.536,45.489c0,0,1.835,17.654-0.962,25.083S722.98,85.43,722.98,85.43L729.536,45.489z"/>
				</g>
				<g>
					<path fill="#736357" d="M710.268,50.77c0,0,1.446,12.96-0.566,18.433c-2.014,5.474-4.027,10.946-4.027,10.946L710.268,50.77z"
						/>
				</g>
				<g>
					<path fill="#736357" d="M694.25,50.008c0,0,6.42,12.296,6.529,18.499c0.109,6.202,0.218,12.405,0.218,12.405L694.25,50.008z"/>
				</g>
				<g>
					<path fill="#736357" d="M676.5,51.922c0,0,4.31,11.131,3.807,16.446c-0.502,5.314-1.005,10.628-1.005,10.628L676.5,51.922z"/>
				</g>
				<g>
					<path fill="#736357" d="M657.27,49.581c0,0,9.563,11.826,11.023,18.47s2.92,13.287,2.92,13.287L657.27,49.581z"/>
				</g>
				<g>
					<path fill="#736357" d="M644.366,50.51c0,0,7.896,11.438,8.767,17.591c0.87,6.154,1.741,12.308,1.741,12.308L644.366,50.51z"/>
				</g>
				<g>
					<path fill="#736357" d="M641.104,52.123c0,0,7.722,10.019,8.807,15.57c1.086,5.552,2.171,11.104,2.171,11.104L641.104,52.123z"
						/>
				</g>
				<g>
					<path fill="#736357" d="M624.424,46.375c0,0,7.663,15.259,7.676,22.896c0.013,7.636,0.025,15.273,0.025,15.273L624.424,46.375z
						"/>
				</g>
				<g>
					<path fill="#736357" d="M616.748,50.63c0,0,6.073,11.825,6.138,17.769c0.063,5.944,0.128,11.889,0.128,11.889L616.748,50.63z"
						/>
				</g>
				<g>
					<path fill="#736357" d="M605.303,48.537c0,0,6.051,13.733,5.725,20.438c-0.326,6.704-0.653,13.407-0.653,13.407L605.303,48.537
						z"/>
				</g>
				<g>
					<path fill="#736357" d="M584.479,51.011c0,0,5.122,11.738,4.824,17.458c-0.299,5.72-0.598,11.439-0.598,11.439L584.479,51.011z
						"/>
				</g>
				<g>
					<path fill="#736357" d="M567.32,53.512c0,0,7.138,8.915,8.21,13.908c1.072,4.993,2.145,9.987,2.145,9.987L567.32,53.512z"/>
				</g>
				<g>
					<path fill="#736357" d="M545.108,49.649c0,0,9.962,11.656,11.615,18.312s3.308,13.311,3.308,13.311L545.108,49.649z"/>
				</g>
				<g>
					<path fill="#736357" d="M541.898,46.555c0,0,2.639,16.465,0.402,23.58c-2.238,7.114-4.475,14.229-4.475,14.229L541.898,46.555z
						"/>
				</g>
				<g>
					<path fill="#736357" d="M525.637,51.661c0,0,9.611,9.923,11.471,15.814c1.86,5.892,3.721,11.783,3.721,11.783L525.637,51.661z"
						/>
				</g>
				<g>
					<path fill="#736357" d="M500.668,50.222c0,0,11.051,10.839,13.303,17.385c2.253,6.546,4.505,13.092,4.505,13.092
						L500.668,50.222z"/>
				</g>
				<g>
					<path fill="#736357" d="M496.445,51.763c0,0,3.716,11.438,2.914,16.756c-0.801,5.318-1.603,10.636-1.603,10.636L496.445,51.763
						z"/>
				</g>
				<g>
					<path fill="#736357" d="M477.645,50.46c0,0,4.322,12.457,3.561,18.304c-0.762,5.848-1.525,11.694-1.525,11.694L477.645,50.46z"
						/>
				</g>
				<g>
					<path fill="#736357" d="M472.87,53.038c0,0,2.558,10.595,1.462,15.344s-2.191,9.499-2.191,9.499L472.87,53.038z"/>
				</g>
				<g>
					<path fill="#736357" d="M451.32,46.481c0,0,7.885,15.103,8.018,22.721c0.134,7.618,0.267,15.236,0.267,15.236L451.32,46.481z"
						/>
				</g>
				<g>
					<path fill="#736357" d="M439.652,52.064c0,0,2.794,11.416,1.629,16.541c-1.166,5.125-2.332,10.25-2.332,10.25L439.652,52.064z"
						/>
				</g>
				<g>
					<path fill="#736357" d="M425.768,49.696c0,0,6.338,12.602,6.354,18.91c0.015,6.309,0.029,12.617,0.029,12.617L425.768,49.696z"
						/>
				</g>
				<g>
					<path fill="#736357" d="M409.629,50.11c0,0,4.23,12.8,3.363,18.766c-0.867,5.966-1.735,11.932-1.735,11.932L409.629,50.11z"/>
				</g>
				<g>
					<path fill="#736357" d="M388.007,52.672c0,0,8.794,9.227,10.467,14.676c1.672,5.449,3.345,10.898,3.345,10.898L388.007,52.672z
						"/>
				</g>
				<g>
					<path fill="#736357" d="M372.485,51.891c0,0,6.17,10.652,6.508,16.147c0.337,5.495,0.675,10.989,0.675,10.989L372.485,51.891z"
						/>
				</g>
				<g>
					<path fill="#736357" d="M347.84,45.52c0,0,9.441,15.552,10.107,23.662c0.666,8.109,1.332,16.218,1.332,16.218L347.84,45.52z"/>
				</g>
				<g>
					<path fill="#736357" d="M339.967,52.708c0,0,4.375,10.398,4.046,15.433s-0.658,10.069-0.658,10.069L339.967,52.708z"/>
				</g>
				<g>
					<path fill="#736357" d="M330.69,46.502c0,0,7.682,15.139,7.726,22.731c0.045,7.592,0.09,15.184,0.09,15.184L330.69,46.502z"/>
				</g>
				<g>
					<path fill="#736357" d="M316.277,51.076c0,0,5.689,11.524,5.66,17.271c-0.028,5.748-0.058,11.496-0.058,11.496L316.277,51.076z
						"/>
				</g>
				<g>
					<path fill="#736357" d="M300.594,52.271c0,0,1.114,11.685-0.777,16.582c-1.891,4.896-3.782,9.793-3.782,9.793L300.594,52.271z"
						/>
				</g>
				<g>
					<path fill="#736357" d="M282.172,51.104c0,0,5.747,11.482,5.749,17.225c0.003,5.742,0.005,11.484,0.005,11.484L282.172,51.104z
						"/>
				</g>
				<g>
					<path fill="#736357" d="M262.43,45.433c0,0,7.346,16.203,7.043,24.153s-0.605,15.9-0.605,15.9L262.43,45.433z"/>
				</g>
				<g>
					<path fill="#736357" d="M234.237,49.843c0,0,9.278,11.666,10.657,18.188s2.757,13.045,2.757,13.045L234.237,49.843z"/>
				</g>
				<g>
					<path fill="#736357" d="M228.92,43.931c0,0,6.172,17.888,5.062,26.278s-2.219,16.779-2.219,16.779L228.92,43.931z"/>
				</g>
				<g>
					<path fill="#736357" d="M213.328,49.869c0,0,9.514,11.579,11.004,18.113s2.979,13.069,2.979,13.069L213.328,49.869z"/>
				</g>
				<g>
					<path fill="#736357" d="M195.191,52.198c0,0,8.362,9.775,9.752,15.358s2.779,11.166,2.779,11.166L195.191,52.198z"/>
				</g>
				<g>
					<path fill="#736357" d="M187.885,49.958c0,0,5.199,12.675,4.744,18.784c-0.455,6.11-0.91,12.22-0.91,12.22L187.885,49.958z"/>
				</g>
				<g>
					<path fill="#736357" d="M180.694,52.187c0,0,6.419,10.315,6.923,15.726s1.009,10.82,1.009,10.82L180.694,52.187z"/>
				</g>
				<g>
					<path fill="#736357" d="M164.521,47.944c0,0,7.514,13.874,7.744,20.926c0.23,7.052,0.461,14.104,0.461,14.104L164.521,47.944z"
						/>
				</g>
				<g>
					<path fill="#736357" d="M152.553,49.71c0,0,3.605,13.334,2.381,19.389c-1.225,6.055-2.449,12.11-2.449,12.11L152.553,49.71z"/>
				</g>
				<g>
					<path fill="#736357" d="M144.53,48.422c0,0,5.907,13.878,5.495,20.61s-0.826,13.465-0.826,13.465L144.53,48.422z"/>
				</g>
				<g>
					<path fill="#736357" d="M139.926,44.945c0,0,4.829,17.333,3.294,25.231c-1.535,7.898-3.07,15.797-3.07,15.797L139.926,44.945z"
						/>
				</g>
				<g>
					<path fill="#736357" d="M132.867,48.438c0,0,3.738,14.455,2.343,20.985s-2.792,13.06-2.792,13.06L132.867,48.438z"/>
				</g>
				<g>
					<path fill="#736357" d="M113.703,45.993c0,0,9.223,15.182,9.875,23.099c0.652,7.917,1.305,15.834,1.305,15.834L113.703,45.993z
						"/>
				</g>
				<g>
					<path fill="#736357" d="M102.729,45.475c0,0,6.383,16.427,5.65,24.274c-0.732,7.847-1.465,15.694-1.465,15.694L102.729,45.475z
						"/>
				</g>
				<g>
					<path fill="#736357" d="M75.084,50.499c0,0,11.123,10.568,13.458,17.02c2.335,6.451,4.671,12.903,4.671,12.903L75.084,50.499z"
						/>
				</g>
				<g>
					<path fill="#736357" d="M70.186,46.801c0,0,12.472,13.561,14.749,21.479c2.277,7.918,4.554,15.837,4.554,15.837L70.186,46.801z
						"/>
				</g>
				<g>
					<path fill="#736357" d="M55.839,49.792c0,0,7.596,12.171,8.199,18.559c0.604,6.388,1.208,12.775,1.208,12.775L55.839,49.792z"
						/>
				</g>
				<g>
					<path fill="#736357" d="M44.509,47.738c0,0,12.938,12.583,15.596,20.203c2.658,7.621,5.317,15.241,5.317,15.241L44.509,47.738z
						"/>
				</g>
				<g>
					<path fill="#736357" d="M42.329,49.542c0,0,10.375,11.642,12.197,18.374c1.821,6.731,3.644,13.463,3.644,13.463L42.329,49.542z
						"/>
				</g>
				<g>
					<path fill="#736357" d="M30.238,47.978c0,0,2.776,15.135,0.859,21.744c-1.917,6.609-3.833,13.219-3.833,13.219L30.238,47.978z"
						/>
				</g>
				<g>
					<path fill="#736357" d="M14.836,54.202c0,0,8.401,7.943,10.172,12.8c1.771,4.857,3.543,9.714,3.543,9.714L14.836,54.202z"/>
				</g>
				<g>
					<path fill="#736357" d="M-5.886,50.059c0,0,6.626,12.193,6.838,18.396S1.376,80.86,1.376,80.86L-5.886,50.059z"/>
				</g>
				<g>
					<path fill="#736357" d="M-21.041,51.629c0,0,1.634,12.127-0.138,17.305c-1.772,5.178-3.544,10.355-3.544,10.355L-21.041,51.629
						z"/>
				</g>
				<g>
					<path fill="#736357" d="M-39.552,45.209c0,0,8.541,16.08,8.741,24.22s0.4,16.28,0.4,16.28L-39.552,45.209z"/>
				</g>
				<g>
					<path fill="#736357" d="M-54.741,51.05c0,0,7.469,11.063,8.243,16.982c0.775,5.918,1.55,11.837,1.55,11.837L-54.741,51.05z"/>
				</g>
				<g>
					<path fill="#736357" d="M-66.627,48.723c0,0,7.778,13.094,8.271,19.888c0.493,6.793,0.985,13.587,0.985,13.587L-66.627,48.723z
						"/>
				</g>
			</g>
		</g>
		<rect x="-146" y="72.126" fill="#327828" width="1068" height="132"/>
		<g>
			<g>
				<g>
					<path fill="#8CC63F" d="M1029.447,67.05c0,0,17.137,73.883,9.217,106.861c-7.922,32.98-15.842,65.959-15.842,65.959
						L1029.447,67.05z"/>
				</g>
				<g>
					<path fill="#8CC63F" d="M909.304,108.046c0,0,29.832,33.15,35.135,52.377c5.302,19.225,10.604,38.451,10.604,38.451
						L909.304,108.046z"/>
				</g>
				<g>
					<path fill="#8CC63F" d="M813.032,96.519c0,0,35.385,42.115,41.115,66.037c5.731,23.922,11.462,47.844,11.462,47.844
						L813.032,96.519z"/>
				</g>
				<g>
					<path fill="#8CC63F" d="M759.571,96.354c0,0,23.031,45.634,23.116,68.493c0.086,22.859,0.171,45.719,0.171,45.719
						L759.571,96.354z"/>
				</g>
				<g>
					<path fill="#8CC63F" d="M710.865,92.745c0,0,26.54,47.959,27.564,72.449c1.024,24.492,2.049,48.982,2.049,48.982
						L710.865,92.745z"/>
				</g>
				<g>
					<path fill="#8CC63F" d="M601.539,80.882c0,0,45.125,53.674,52.439,84.17c7.316,30.494,14.631,60.988,14.631,60.988
						L601.539,80.882z"/>
				</g>
				<g>
					<path fill="#8CC63F" d="M584.615,97.966c0,0,25.849,43.4,27.509,65.93c1.658,22.529,3.318,45.059,3.318,45.059L584.615,97.966z
						"/>
				</g>
				<g>
					<path fill="#8CC63F" d="M514.104,79.429c0,0,14.947,63.223,8.281,91.502c-6.664,28.277-13.328,56.557-13.328,56.557
						L514.104,79.429z"/>
				</g>
				<g>
					<path fill="#8CC63F" d="M445.832,99.365c0,0,22.741,42.974,23.243,64.712c0.501,21.738,1.003,43.476,1.003,43.476
						L445.832,99.365z"/>
				</g>
				<g>
					<path fill="#8CC63F" d="M399.127,91.53c0,0,7.818,54.165,0.111,77.396c-7.705,23.23-15.41,46.461-15.41,46.461L399.127,91.53z"
						/>
				</g>
				<g>
					<path fill="#8CC63F" d="M358.667,99.55c0,0,18.568,43.944,17.206,65.234c-1.361,21.291-2.724,42.582-2.724,42.582
						L358.667,99.55z"/>
				</g>
				<g>
					<path fill="#8CC63F" d="M264.453,69.784c0,0,20.688,70.43,14.877,102.74c-5.811,32.309-11.621,64.619-11.621,64.619
						L264.453,69.784z"/>
				</g>
				<g>
					<path fill="#8CC63F" d="M161.26,79.034c0,0,38.26,57.225,42.119,87.768s7.719,61.082,7.719,61.082L161.26,79.034z"/>
				</g>
				<g>
					<path fill="#8CC63F" d="M86.288,104.034c0,0,15.521,40.698,13.59,60.083c-1.931,19.383-3.862,38.768-3.862,38.768
						L86.288,104.034z"/>
				</g>
				<g>
					<path fill="#8CC63F" d="M-30.008,81.325c0,0,42.127,54.088,48.16,84.148s12.067,60.119,12.067,60.119L-30.008,81.325z"/>
				</g>
				<g>
					<path fill="#8CC63F" d="M-39.725,90.456c0,0,16,52.913,11.816,77.276c-4.184,24.365-8.367,48.73-8.367,48.73L-39.725,90.456z"
						/>
				</g>
			</g>
		</g>
		<g>
			<g>
				<g>
					<path fill="#39B54A" d="M921.447,103.05c0,0,17.137,73.883,9.217,106.861c-7.922,32.98-15.842,65.959-15.842,65.959
						L921.447,103.05z"/>
				</g>
				<g>
					<path fill="#39B54A" d="M801.304,144.046c0,0,29.832,33.15,35.135,52.377c5.302,19.225,10.604,38.451,10.604,38.451
						L801.304,144.046z"/>
				</g>
				<g>
					<path fill="#39B54A" d="M705.032,132.519c0,0,35.385,42.115,41.115,66.037c5.731,23.922,11.462,47.844,11.462,47.844
						L705.032,132.519z"/>
				</g>
				<g>
					<path fill="#39B54A" d="M651.571,132.354c0,0,23.031,45.634,23.116,68.493c0.086,22.859,0.171,45.719,0.171,45.719
						L651.571,132.354z"/>
				</g>
				<g>
					<path fill="#39B54A" d="M602.865,128.745c0,0,26.54,47.959,27.564,72.449c1.024,24.492,2.049,48.982,2.049,48.982
						L602.865,128.745z"/>
				</g>
				<g>
					<path fill="#39B54A" d="M493.539,116.882c0,0,45.125,53.674,52.439,84.17c7.316,30.494,14.631,60.988,14.631,60.988
						L493.539,116.882z"/>
				</g>
				<g>
					<path fill="#39B54A" d="M476.615,133.966c0,0,25.849,43.4,27.509,65.93c1.658,22.529,3.318,45.059,3.318,45.059
						L476.615,133.966z"/>
				</g>
				<g>
					<path fill="#39B54A" d="M406.104,115.429c0,0,14.947,63.223,8.281,91.502c-6.664,28.277-13.328,56.557-13.328,56.557
						L406.104,115.429z"/>
				</g>
				<g>
					<path fill="#39B54A" d="M337.832,135.365c0,0,22.741,42.974,23.243,64.712c0.501,21.738,1.003,43.476,1.003,43.476
						L337.832,135.365z"/>
				</g>
				<g>
					<path fill="#39B54A" d="M291.127,127.53c0,0,7.818,54.165,0.111,77.396c-7.705,23.23-15.41,46.461-15.41,46.461L291.127,127.53
						z"/>
				</g>
				<g>
					<path fill="#39B54A" d="M250.667,135.55c0,0,18.568,43.944,17.206,65.234c-1.361,21.291-2.724,42.582-2.724,42.582
						L250.667,135.55z"/>
				</g>
				<g>
					<path fill="#39B54A" d="M156.453,105.784c0,0,20.688,70.43,14.877,102.74c-5.811,32.309-11.621,64.619-11.621,64.619
						L156.453,105.784z"/>
				</g>
				<g>
					<path fill="#39B54A" d="M53.26,115.034c0,0,38.26,57.225,42.119,87.768s7.719,61.082,7.719,61.082L53.26,115.034z"/>
				</g>
				<g>
					<path fill="#39B54A" d="M-21.712,140.034c0,0,15.521,40.698,13.59,60.083c-1.931,19.383-3.862,38.768-3.862,38.768
						L-21.712,140.034z"/>
				</g>
				<g>
					<path fill="#39B54A" d="M-138.008,117.325c0,0,42.127,54.088,48.16,84.148s12.067,60.119,12.067,60.119L-138.008,117.325z"/>
				</g>
				<g>
					<path fill="#39B54A" d="M-147.725,126.456c0,0,16,52.913,11.816,77.276c-4.184,24.365-8.367,48.73-8.367,48.73
						L-147.725,126.456z"/>
				</g>
			</g>
		</g>
		<g>
			<g>
				<g>
					<path fill="#327828" d="M913.549,51.702c0,0,11.844,17.156,13.149,26.387s2.612,18.462,2.612,18.462L913.549,51.702z"/>
				</g>
				<g>
					<path fill="#327828" d="M908.654,54.121c0,0,11.584,15.027,13.211,23.354c1.629,8.328,3.256,16.655,3.256,16.655
						L908.654,54.121z"/>
				</g>
				<g>
					<path fill="#327828" d="M883.637,45.499c0,0,11.492,22.89,11.512,34.345s0.038,22.91,0.038,22.91L883.637,45.499z"/>
				</g>
				<g>
					<path fill="#327828" d="M872.123,51.882c0,0,9.109,17.736,9.205,26.653c0.097,8.917,0.193,17.833,0.193,17.833L872.123,51.882z
						"/>
				</g>
				<g>
					<path fill="#327828" d="M854.953,48.742c0,0,9.076,20.601,8.587,30.657c-0.489,10.055-0.979,20.111-0.979,20.111
						L854.953,48.742z"/>
				</g>
				<g>
					<path fill="#327828" d="M823.72,52.453c0,0,7.684,17.607,7.235,26.187c-0.447,8.58-0.896,17.159-0.896,17.159L823.72,52.453z"
						/>
				</g>
				<g>
					<path fill="#327828" d="M797.98,56.205c0,0,10.707,13.371,12.315,20.861s3.217,14.98,3.217,14.98L797.98,56.205z"/>
				</g>
				<g>
					<path fill="#327828" d="M764.662,50.409c0,0,14.943,17.485,17.424,27.468s4.961,19.965,4.961,19.965L764.662,50.409z"/>
				</g>
				<g>
					<path fill="#327828" d="M759.847,45.77c0,0,3.959,24.698,0.604,35.37s-6.712,21.343-6.712,21.343L759.847,45.77z"/>
				</g>
				<g>
					<path fill="#327828" d="M735.455,53.429c0,0,14.416,14.884,17.207,23.721c2.789,8.837,5.579,17.675,5.579,17.675
						L735.455,53.429z"/>
				</g>
				<g>
					<path fill="#327828" d="M698.002,51.268c0,0,16.576,16.259,19.955,26.078c3.377,9.818,6.756,19.638,6.756,19.638
						L698.002,51.268z"/>
				</g>
				<g>
					<path fill="#327828" d="M691.668,53.583c0,0,5.574,17.156,4.371,25.133c-1.201,7.977-2.404,15.955-2.404,15.955L691.668,53.583
						z"/>
				</g>
				<g>
					<path fill="#327828" d="M663.467,51.627c0,0,6.484,18.686,5.341,27.456c-1.144,8.771-2.287,17.542-2.287,17.542L663.467,51.627
						z"/>
				</g>
				<g>
					<path fill="#327828" d="M656.305,55.494c0,0,3.838,15.892,2.193,23.017c-1.643,7.124-3.287,14.249-3.287,14.249L656.305,55.494
						z"/>
				</g>
				<g>
					<path fill="#327828" d="M623.98,45.658c0,0,11.828,22.654,12.027,34.082s0.399,22.854,0.399,22.854L623.98,45.658z"/>
				</g>
				<g>
					<path fill="#327828" d="M606.48,54.034c0,0,4.189,17.123,2.441,24.811s-3.498,15.375-3.498,15.375L606.48,54.034z"/>
				</g>
				<g>
					<path fill="#327828" d="M585.65,50.482c0,0,9.508,18.901,9.531,28.364c0.022,9.462,0.045,18.925,0.045,18.925L585.65,50.482z"
						/>
				</g>
				<g>
					<path fill="#327828" d="M561.443,51.103c0,0,6.346,19.2,5.045,28.148c-1.302,8.949-2.604,17.898-2.604,17.898L561.443,51.103z"
						/>
				</g>
				<g>
					<path fill="#327828" d="M529.01,54.945c0,0,13.191,13.839,15.701,22.013c2.508,8.175,5.017,16.349,5.017,16.349L529.01,54.945z
						"/>
				</g>
				<g>
					<path fill="#327828" d="M505.729,53.773c0,0,9.255,15.979,9.762,24.221c0.506,8.242,1.012,16.484,1.012,16.484L505.729,53.773z
						"/>
				</g>
				<g>
					<path fill="#327828" d="M468.759,44.216c0,0,14.161,23.328,15.161,35.492c0.998,12.164,1.997,24.327,1.997,24.327
						L468.759,44.216z"/>
				</g>
				<g>
					<path fill="#327828" d="M456.95,55c0,0,6.563,15.598,6.069,23.149c-0.494,7.551-0.987,15.103-0.987,15.103L456.95,55z"/>
				</g>
				<g>
					<path fill="#327828" d="M443.035,45.691c0,0,11.522,22.708,11.59,34.096c0.066,11.388,0.134,22.775,0.134,22.775
						L443.035,45.691z"/>
				</g>
				<g>
					<path fill="#327828" d="M421.415,52.55c0,0,8.534,17.287,8.491,25.908s-0.086,17.243-0.086,17.243L421.415,52.55z"/>
				</g>
				<g>
					<path fill="#327828" d="M397.891,54.345c0,0,1.672,17.527-1.166,24.873c-2.836,7.345-5.674,14.689-5.674,14.689L397.891,54.345
						z"/>
				</g>
				<g>
					<path fill="#327828" d="M370.26,52.594c0,0,8.619,17.224,8.623,25.837c0.002,8.614,0.006,17.227,0.006,17.227L370.26,52.594z"
						/>
				</g>
				<g>
					<path fill="#327828" d="M340.646,44.085c0,0,11.018,24.305,10.563,36.23c-0.453,11.925-0.907,23.851-0.907,23.851
						L340.646,44.085z"/>
				</g>
				<g>
					<path fill="#327828" d="M298.355,50.701c0,0,13.92,17.499,15.987,27.282s4.136,19.566,4.136,19.566L298.355,50.701z"/>
				</g>
				<g>
					<path fill="#327828" d="M290.38,41.833c0,0,9.257,26.833,7.593,39.417s-3.327,25.169-3.327,25.169L290.38,41.833z"/>
				</g>
				<g>
					<path fill="#327828" d="M266.993,50.739c0,0,14.271,17.368,16.505,27.17s4.469,19.603,4.469,19.603L266.993,50.739z"/>
				</g>
				<g>
					<path fill="#327828" d="M239.788,54.232c0,0,12.543,14.664,14.628,23.038c2.084,8.375,4.168,16.749,4.168,16.749
						L239.788,54.232z"/>
				</g>
				<g>
					<path fill="#327828" d="M228.826,50.873c0,0,7.8,19.012,7.117,28.177c-0.684,9.165-1.366,18.329-1.366,18.329L228.826,50.873z"
						/>
				</g>
				<g>
					<path fill="#327828" d="M218.041,54.217c0,0,9.629,15.474,10.385,23.588s1.513,16.23,1.513,16.23L218.041,54.217z"/>
				</g>
				<g>
					<path fill="#327828" d="M193.783,47.854c0,0,11.27,20.811,11.615,31.389s0.691,21.156,0.691,21.156L193.783,47.854z"/>
				</g>
				<g>
					<path fill="#327828" d="M175.83,50.501c0,0,5.408,20.001,3.572,29.083c-1.838,9.082-3.674,18.165-3.674,18.165L175.83,50.501z"
						/>
				</g>
				<g>
					<path fill="#327828" d="M163.795,48.57c0,0,8.861,20.816,8.242,30.915s-1.238,20.197-1.238,20.197L163.795,48.57z"/>
				</g>
				<g>
					<path fill="#327828" d="M156.889,43.354c0,0,7.243,25.999,4.941,37.847c-2.303,11.848-4.604,23.696-4.604,23.696
						L156.889,43.354z"/>
				</g>
				<g>
					<path fill="#327828" d="M146.301,48.592c0,0,5.608,21.683,3.514,31.478s-4.187,19.589-4.187,19.589L146.301,48.592z"/>
				</g>
				<g>
					<path fill="#327828" d="M117.554,44.926c0,0,13.833,22.771,14.812,34.647c0.979,11.876,1.958,23.752,1.958,23.752
						L117.554,44.926z"/>
				</g>
				<g>
					<path fill="#327828" d="M101.092,44.149c0,0,9.573,24.641,8.475,36.411s-2.197,23.542-2.197,23.542L101.092,44.149z"/>
				</g>
				<g>
					<path fill="#327828" d="M59.626,51.685c0,0,16.683,15.852,20.187,25.528c3.503,9.678,7.006,19.354,7.006,19.354L59.626,51.685z
						"/>
				</g>
				<g>
					<path fill="#327828" d="M52.279,46.139c0,0,18.708,20.341,22.124,32.219c3.415,11.878,6.83,23.756,6.83,23.756L52.279,46.139z"
						/>
				</g>
				<g>
					<path fill="#327828" d="M30.757,50.625c0,0,11.394,18.257,12.299,27.839c0.906,9.582,1.812,19.164,1.812,19.164L30.757,50.625z
						"/>
				</g>
				<g>
					<path fill="#327828" d="M13.764,47.544c0,0,19.406,18.874,23.394,30.305c3.988,11.432,7.976,22.862,7.976,22.862L13.764,47.544
						z"/>
				</g>
				<g>
					<path fill="#327828" d="M10.493,50.248c0,0,15.563,17.463,18.296,27.561c2.732,10.098,5.465,20.195,5.465,20.195L10.493,50.248
						z"/>
				</g>
				<g>
					<path fill="#327828" d="M-7.643,47.903c0,0,4.163,22.702,1.289,32.616c-2.875,9.914-5.75,19.828-5.75,19.828L-7.643,47.903z"/>
				</g>
				<g>
					<path fill="#327828" d="M-30.745,57.24c0,0,12.601,11.915,15.258,19.201c2.657,7.286,5.314,14.572,5.314,14.572L-30.745,57.24z
						"/>
				</g>
				<g>
					<path fill="#327828" d="M-61.831,51.025c0,0,9.94,18.29,10.258,27.594c0.318,9.304,0.636,18.608,0.636,18.608L-61.831,51.025z"
						/>
				</g>
				<g>
					<path fill="#327828" d="M-84.562,53.381c0,0,2.451,18.191-0.207,25.958c-2.658,7.767-5.315,15.533-5.315,15.533L-84.562,53.381
						z"/>
				</g>
				<g>
					<path fill="#327828" d="M-112.326,43.751c0,0,12.811,24.121,13.111,36.331s0.601,24.42,0.601,24.42L-112.326,43.751z"/>
				</g>
				<g>
					<path fill="#327828" d="M-135.111,52.511c0,0,11.202,16.594,12.364,25.473c1.162,8.878,2.324,17.756,2.324,17.756
						L-135.111,52.511z"/>
				</g>
				<g>
					<path fill="#327828" d="M-152.942,49.02c0,0,11.668,19.643,12.407,29.832c0.739,10.19,1.478,20.381,1.478,20.381
						L-152.942,49.02z"/>
				</g>
			</g>
		</g>
		<g>
			<g>
				<g>
					<path fill="#327828" d="M553.549,39.702c0,0,11.844,17.156,13.149,26.387s2.612,18.462,2.612,18.462L553.549,39.702z"/>
				</g>
				<g>
					<path fill="#327828" d="M548.654,42.121c0,0,11.584,15.027,13.211,23.354c1.629,8.328,3.256,16.655,3.256,16.655
						L548.654,42.121z"/>
				</g>
				<g>
					<path fill="#327828" d="M523.637,33.499c0,0,11.492,22.89,11.512,34.345s0.038,22.91,0.038,22.91L523.637,33.499z"/>
				</g>
				<g>
					<path fill="#327828" d="M512.123,39.882c0,0,9.109,17.736,9.205,26.653c0.097,8.917,0.193,17.833,0.193,17.833L512.123,39.882z
						"/>
				</g>
				<g>
					<path fill="#327828" d="M494.953,36.742c0,0,9.076,20.601,8.587,30.657c-0.489,10.055-0.979,20.111-0.979,20.111
						L494.953,36.742z"/>
				</g>
				<g>
					<path fill="#327828" d="M463.72,40.453c0,0,7.684,17.607,7.235,26.187c-0.447,8.58-0.896,17.159-0.896,17.159L463.72,40.453z"
						/>
				</g>
				<g>
					<path fill="#327828" d="M437.98,44.205c0,0,10.707,13.371,12.315,20.861s3.217,14.98,3.217,14.98L437.98,44.205z"/>
				</g>
				<g>
					<path fill="#327828" d="M404.662,38.409c0,0,14.943,17.485,17.424,27.468s4.961,19.965,4.961,19.965L404.662,38.409z"/>
				</g>
				<g>
					<path fill="#327828" d="M399.847,33.77c0,0,3.959,24.698,0.604,35.37s-6.712,21.343-6.712,21.343L399.847,33.77z"/>
				</g>
				<g>
					<path fill="#327828" d="M375.455,41.429c0,0,14.416,14.884,17.207,23.721c2.789,8.837,5.579,17.675,5.579,17.675
						L375.455,41.429z"/>
				</g>
				<g>
					<path fill="#327828" d="M338.002,39.268c0,0,16.576,16.259,19.955,26.078c3.377,9.818,6.756,19.638,6.756,19.638
						L338.002,39.268z"/>
				</g>
				<g>
					<path fill="#327828" d="M331.668,41.583c0,0,5.574,17.156,4.371,25.133c-1.201,7.977-2.404,15.955-2.404,15.955L331.668,41.583
						z"/>
				</g>
				<g>
					<path fill="#327828" d="M303.467,39.627c0,0,6.484,18.686,5.341,27.456c-1.144,8.771-2.287,17.542-2.287,17.542L303.467,39.627
						z"/>
				</g>
				<g>
					<path fill="#327828" d="M296.305,43.494c0,0,3.838,15.892,2.193,23.017c-1.643,7.124-3.287,14.249-3.287,14.249L296.305,43.494
						z"/>
				</g>
				<g>
					<path fill="#327828" d="M263.98,33.658c0,0,11.828,22.654,12.027,34.082s0.399,22.854,0.399,22.854L263.98,33.658z"/>
				</g>
				<g>
					<path fill="#327828" d="M246.48,42.034c0,0,4.189,17.123,2.441,24.811s-3.498,15.375-3.498,15.375L246.48,42.034z"/>
				</g>
				<g>
					<path fill="#327828" d="M225.65,38.482c0,0,9.508,18.901,9.531,28.364c0.022,9.462,0.045,18.925,0.045,18.925L225.65,38.482z"
						/>
				</g>
				<g>
					<path fill="#327828" d="M201.443,39.103c0,0,6.346,19.2,5.045,28.148c-1.302,8.949-2.604,17.898-2.604,17.898L201.443,39.103z"
						/>
				</g>
				<g>
					<path fill="#327828" d="M169.01,42.945c0,0,13.191,13.839,15.701,22.013c2.508,8.175,5.017,16.349,5.017,16.349L169.01,42.945z
						"/>
				</g>
				<g>
					<path fill="#327828" d="M145.729,41.773c0,0,9.254,15.979,9.761,24.221c0.506,8.242,1.012,16.484,1.012,16.484L145.729,41.773z
						"/>
				</g>
				<g>
					<path fill="#327828" d="M108.759,32.216c0,0,14.162,23.328,15.161,35.492c0.999,12.164,1.998,24.327,1.998,24.327
						L108.759,32.216z"/>
				</g>
				<g>
					<path fill="#327828" d="M96.95,43c0,0,6.563,15.598,6.07,23.149c-0.494,7.551-0.988,15.103-0.988,15.103L96.95,43z"/>
				</g>
				<g>
					<path fill="#327828" d="M83.035,33.691c0,0,11.522,22.708,11.589,34.096s0.134,22.775,0.134,22.775L83.035,33.691z"/>
				</g>
				<g>
					<path fill="#327828" d="M61.415,40.55c0,0,8.535,17.287,8.491,25.908S69.82,83.702,69.82,83.702L61.415,40.55z"/>
				</g>
				<g>
					<path fill="#327828" d="M37.891,42.345c0,0,1.671,17.527-1.166,24.873c-2.837,7.345-5.674,14.689-5.674,14.689L37.891,42.345z"
						/>
				</g>
				<g>
					<path fill="#327828" d="M10.259,40.594c0,0,8.62,17.224,8.623,25.837c0.003,8.614,0.006,17.227,0.006,17.227L10.259,40.594z"/>
				</g>
				<g>
					<path fill="#327828" d="M-19.354,32.085c0,0,11.018,24.305,10.563,36.23c-0.453,11.925-0.907,23.851-0.907,23.851
						L-19.354,32.085z"/>
				</g>
				<g>
					<path fill="#327828" d="M-61.644,38.701c0,0,13.919,17.499,15.987,27.282s4.135,19.566,4.135,19.566L-61.644,38.701z"/>
				</g>
				<g>
					<path fill="#327828" d="M-69.62,29.833c0,0,9.257,26.833,7.593,39.417s-3.327,25.169-3.327,25.169L-69.62,29.833z"/>
				</g>
				<g>
					<path fill="#327828" d="M-93.007,38.739c0,0,14.271,17.368,16.505,27.17c2.235,9.802,4.469,19.603,4.469,19.603L-93.007,38.739
						z"/>
				</g>
				<g>
					<path fill="#327828" d="M-120.212,42.232c0,0,12.543,14.664,14.627,23.038c2.084,8.375,4.169,16.749,4.169,16.749
						L-120.212,42.232z"/>
				</g>
				<g>
					<path fill="#327828" d="M-131.173,38.873c0,0,7.799,19.012,7.116,28.177s-1.366,18.329-1.366,18.329L-131.173,38.873z"/>
				</g>
				<g>
					<path fill="#327828" d="M-141.958,42.217c0,0,9.628,15.474,10.384,23.588s1.513,16.23,1.513,16.23L-141.958,42.217z"/>
				</g>
				<g>
					<path fill="#327828" d="M-166.217,35.854c0,0,11.27,20.811,11.615,31.389s0.691,21.156,0.691,21.156L-166.217,35.854z"/>
				</g>
				<g>
					<path fill="#327828" d="M-184.17,38.501c0,0,5.409,20.001,3.572,29.083s-3.674,18.165-3.674,18.165L-184.17,38.501z"/>
				</g>
				<g>
					<path fill="#327828" d="M-196.205,36.57c0,0,8.861,20.816,8.242,30.915s-1.238,20.197-1.238,20.197L-196.205,36.57z"/>
				</g>
				<g>
					<path fill="#327828" d="M-203.111,31.354c0,0,7.243,25.999,4.941,37.847c-2.303,11.848-4.604,23.696-4.604,23.696
						L-203.111,31.354z"/>
				</g>
				<g>
					<path fill="#327828" d="M-213.699,36.592c0,0,5.608,21.683,3.514,31.478s-4.187,19.589-4.187,19.589L-213.699,36.592z"/>
				</g>
				<g>
					<path fill="#327828" d="M-242.446,32.926c0,0,13.833,22.771,14.812,34.647c0.979,11.876,1.958,23.752,1.958,23.752
						L-242.446,32.926z"/>
				</g>
				<g>
					<path fill="#327828" d="M-258.908,32.149c0,0,9.573,24.641,8.475,36.411s-2.197,23.542-2.197,23.542L-258.908,32.149z"/>
				</g>
				<g>
					<path fill="#327828" d="M-300.374,39.685c0,0,16.683,15.852,20.187,25.528c3.503,9.678,7.006,19.354,7.006,19.354
						L-300.374,39.685z"/>
				</g>
				<g>
					<path fill="#327828" d="M-307.721,34.139c0,0,18.708,20.341,22.124,32.219c3.415,11.878,6.83,23.756,6.83,23.756
						L-307.721,34.139z"/>
				</g>
				<g>
					<path fill="#327828" d="M-329.243,38.625c0,0,11.394,18.257,12.299,27.839c0.906,9.582,1.812,19.164,1.812,19.164
						L-329.243,38.625z"/>
				</g>
				<g>
					<path fill="#327828" d="M-346.236,35.544c0,0,19.406,18.874,23.394,30.305c3.988,11.432,7.976,22.862,7.976,22.862
						L-346.236,35.544z"/>
				</g>
				<g>
					<path fill="#327828" d="M-349.507,38.248c0,0,15.563,17.463,18.296,27.561c2.732,10.098,5.465,20.195,5.465,20.195
						L-349.507,38.248z"/>
				</g>
				<g>
					<path fill="#327828" d="M-367.642,35.903c0,0,4.163,22.702,1.289,32.616c-2.875,9.914-5.75,19.828-5.75,19.828L-367.642,35.903
						z"/>
				</g>
				<g>
					<path fill="#327828" d="M-390.745,45.24c0,0,12.601,11.915,15.258,19.201c2.657,7.286,5.314,14.572,5.314,14.572
						L-390.745,45.24z"/>
				</g>
				<g>
					<path fill="#327828" d="M-421.831,39.025c0,0,9.94,18.29,10.258,27.594c0.318,9.304,0.636,18.608,0.636,18.608L-421.831,39.025
						z"/>
				</g>
				<g>
					<path fill="#327828" d="M-444.562,41.381c0,0,2.451,18.191-0.207,25.958c-2.658,7.767-5.315,15.533-5.315,15.533
						L-444.562,41.381z"/>
				</g>
				<g>
					<path fill="#327828" d="M-472.326,31.751c0,0,12.811,24.121,13.111,36.331s0.601,24.42,0.601,24.42L-472.326,31.751z"/>
				</g>
				<g>
					<path fill="#327828" d="M-495.111,40.511c0,0,11.202,16.594,12.364,25.473c1.162,8.878,2.324,17.756,2.324,17.756
						L-495.111,40.511z"/>
				</g>
				<g>
					<path fill="#327828" d="M-512.942,37.02c0,0,11.668,19.643,12.407,29.832c0.739,10.19,1.478,20.381,1.478,20.381
						L-512.942,37.02z"/>
				</g>
			</g>
		</g>
		<g>
			<g>
				<g>
					<path fill="#8CC63F" d="M837.343,107.383c0,0,11.62,12.147,13.839,19.331c2.218,7.183,4.437,14.366,4.437,14.366
						L837.343,107.383z"/>
				</g>
				<g>
					<path fill="#8CC63F" d="M826.363,101.725c0,0,9.742,23.258,8.987,34.509s-1.51,22.503-1.51,22.503L826.363,101.725z"/>
				</g>
				<g>
					<path fill="#8CC63F" d="M795.743,116.4c0,0,11.024,19.25,11.583,29.155c0.56,9.905,1.119,19.81,1.119,19.81L795.743,116.4z"/>
				</g>
				<g>
					<path fill="#8CC63F" d="M779.035,119.194c0,0,6.95,25.726,4.585,37.407c-2.364,11.681-4.729,23.36-4.729,23.36L779.035,119.194
						z"/>
				</g>
				<g>
					<path fill="#8CC63F" d="M748.293,133.794c0,0,5.525,22.799,3.176,33.023s-4.699,20.449-4.699,20.449L748.293,133.794z"/>
				</g>
				<g>
					<path fill="#8CC63F" d="M734.341,139.829c0,0,12.362,16.751,13.957,25.924c1.595,9.173,3.189,18.346,3.189,18.346
						L734.341,139.829z"/>
				</g>
				<g>
					<path fill="#8CC63F" d="M715.781,148.646c0,0,4.556,16.483,3.081,23.987s-2.948,15.009-2.948,15.009L715.781,148.646z"/>
				</g>
				<g>
					<path fill="#8CC63F" d="M708.463,140.599c0,0,5.016,23.198,2.383,33.48c-2.633,10.283-5.267,20.565-5.267,20.565
						L708.463,140.599z"/>
				</g>
				<g>
					<path fill="#8CC63F" d="M674.445,133.907c0,0,13.568,25.101,13.977,37.854c0.408,12.754,0.816,25.508,0.816,25.508
						L674.445,133.907z"/>
				</g>
				<g>
					<path fill="#8CC63F" d="M656.78,140.364c0,0,10.435,18.374,10.933,27.81c0.499,9.437,0.998,18.873,0.998,18.873L656.78,140.364
						z"/>
				</g>
				<g>
					<path fill="#8CC63F" d="M635.531,142.686c0,0,14.639,13.699,17.754,22.106c3.115,8.408,6.23,16.815,6.23,16.815
						L635.531,142.686z"/>
				</g>
				<g>
					<path fill="#8CC63F" d="M628.399,131.396c0,0,7.202,24.214,5.24,35.34c-1.963,11.127-3.925,22.253-3.925,22.253
						L628.399,131.396z"/>
				</g>
				<g>
					<path fill="#8CC63F" d="M602.586,130.423c0,0,15.332,21.373,17.189,32.988s3.716,23.23,3.716,23.23L602.586,130.423z"/>
				</g>
				<g>
					<path fill="#8CC63F" d="M597.834,140.476c0,0,10.225,12.906,11.733,20.113s3.018,14.414,3.018,14.414L597.834,140.476z"/>
				</g>
				<g>
					<path fill="#8CC63F" d="M581.578,133.287c0,0,15.217,17.129,17.878,27.024s5.321,19.79,5.321,19.79L581.578,133.287z"/>
				</g>
				<g>
					<path fill="#8CC63F" d="M562.935,136.077c0,0,11.278,17.703,12.249,27.041c0.971,9.337,1.941,18.674,1.941,18.674
						L562.935,136.077z"/>
				</g>
				<g>
					<path fill="#8CC63F" d="M554.617,142.759c0,0,7.44,14.99,7.418,22.474c-0.021,7.483-0.044,14.967-0.044,14.967L554.617,142.759
						z"/>
				</g>
				<g>
					<path fill="#8CC63F" d="M540.361,144c0,0,11.064,14.927,12.506,23.111s2.881,16.368,2.881,16.368L540.361,144z"/>
				</g>
				<g>
					<path fill="#8CC63F" d="M528.145,144.478c0,0,3.158,21.253,0.17,30.386c-2.986,9.133-5.975,18.266-5.975,18.266
						L528.145,144.478z"/>
				</g>
				<g>
					<path fill="#8CC63F" d="M484.311,157.843c0,0,11.828,12.948,13.97,20.493c2.142,7.545,4.283,15.09,4.283,15.09L484.311,157.843
						z"/>
				</g>
				<g>
					<path fill="#8CC63F" d="M487.303,155.335c0,0,2.975,19.205,0.324,27.482c-2.65,8.277-5.301,16.554-5.301,16.554
						L487.303,155.335z"/>
				</g>
				<g>
					<path fill="#8CC63F" d="M467.996,149.919c0,0,9.068,25.074,7.682,36.917c-1.387,11.844-2.774,23.688-2.774,23.688
						L467.996,149.919z"/>
				</g>
				<g>
					<path fill="#8CC63F" d="M452.308,151.748c0,0,11.157,25.205,10.579,37.519c-0.578,12.312-1.156,24.626-1.156,24.626
						L452.308,151.748z"/>
				</g>
				<g>
					<path fill="#8CC63F" d="M450.604,157.97c0,0,5.253,22.317,2.891,32.294c-2.362,9.978-4.725,19.955-4.725,19.955L450.604,157.97
						z"/>
				</g>
				<g>
					<path fill="#8CC63F" d="M424.582,161.369c0,0,12.378,20.046,13.32,30.54c0.941,10.494,1.883,20.988,1.883,20.988
						L424.582,161.369z"/>
				</g>
				<g>
					<path fill="#8CC63F" d="M409.678,159.996c0,0,3.479,27.192-0.568,38.765c-4.048,11.572-8.095,23.145-8.095,23.145
						L409.678,159.996z"/>
				</g>
				<g>
					<path fill="#8CC63F" d="M358.51,164.359c0,0,16.541,22.346,18.688,34.592c2.147,12.246,4.295,24.492,4.295,24.492
						L358.51,164.359z"/>
				</g>
				<g>
					<path fill="#8CC63F" d="M327.656,167.704c0,0,13.508,15.375,15.836,24.227c2.329,8.852,4.657,17.703,4.657,17.703
						L327.656,167.704z"/>
				</g>
				<g>
					<path fill="#8CC63F" d="M310.398,147.585c0,0,5.577,25.229,2.762,36.436c-2.815,11.207-5.63,22.414-5.63,22.414
						L310.398,147.585z"/>
				</g>
				<g>
					<path fill="#8CC63F" d="M283.199,145.517c0,0,13.481,17.906,15.293,27.764c1.812,9.859,3.623,19.718,3.623,19.718
						L283.199,145.517z"/>
				</g>
				<g>
					<path fill="#8CC63F" d="M279.779,139.662c0,0,1.938,19.344-1.156,27.469s-6.188,16.25-6.188,16.25L279.779,139.662z"/>
				</g>
				<g>
					<path fill="#8CC63F" d="M242.468,116.183c0,0,7.43,27.042,4.992,39.345c-2.437,12.303-4.873,24.605-4.873,24.605
						L242.468,116.183z"/>
				</g>
				<g>
					<path fill="#8CC63F" d="M216.18,121.744c0,0,16.299,15.745,19.67,25.303s6.741,19.116,6.741,19.116L216.18,121.744z"/>
				</g>
				<g>
					<path fill="#8CC63F" d="M178.777,130.393c0,0,12.359,11.803,14.943,18.996s5.167,14.387,5.167,14.387L178.777,130.393z"/>
				</g>
				<g>
					<path fill="#8CC63F" d="M170.542,128.796c0,0,12.101,15.254,13.891,23.776c1.79,8.521,3.579,17.043,3.579,17.043
						L170.542,128.796z"/>
				</g>
				<g>
					<path fill="#8CC63F" d="M155.844,133.556c0,0,10.956,13.631,12.612,21.274s3.312,15.287,3.312,15.287L155.844,133.556z"/>
				</g>
				<g>
					<path fill="#8CC63F" d="M139.307,130.058c0,0,6.549,21.268,4.915,31.084s-3.268,19.634-3.268,19.634L139.307,130.058z"/>
				</g>
				<g>
					<path fill="#8CC63F" d="M96.905,133.318c0,0,18.459,18.478,22.147,29.56c3.688,11.082,7.377,22.164,7.377,22.164
						L96.905,133.318z"/>
				</g>
				<g>
					<path fill="#8CC63F" d="M92.346,134.945c0,0,4.166,23.144,1.205,33.235c-2.963,10.091-5.924,20.182-5.924,20.182
						L92.346,134.945z"/>
				</g>
				<g>
					<path fill="#8CC63F" d="M54.358,143.95c0,0,3.287,18.625,0.876,26.732c-2.41,8.107-4.82,16.214-4.82,16.214L54.358,143.95z"/>
				</g>
				<g>
					<path fill="#8CC63F" d="M27.086,136.853c0,0,12.45,24.156,12.599,36.309c0.149,12.152,0.298,24.304,0.298,24.304
						L27.086,136.853z"/>
				</g>
				<g>
					<path fill="#8CC63F" d="M12.905,150.331c0,0,7.863,14.174,8.173,21.417s0.62,14.484,0.62,14.484L12.905,150.331z"/>
				</g>
				<g>
					<path fill="#8CC63F" d="M-7.074,143.947c0,0,17.918,17.864,21.513,28.595c3.595,10.729,7.189,21.459,7.189,21.459
						L-7.074,143.947z"/>
				</g>
				<g>
					<path fill="#8CC63F" d="M-25.212,138.173c0,0,10.18,26.641,8.924,39.334c-1.257,12.692-2.513,25.386-2.513,25.386
						L-25.212,138.173z"/>
				</g>
				<g>
					<path fill="#8CC63F" d="M-38.938,143.764c0,0,6.109,23.251,3.903,33.773c-2.206,10.522-4.413,21.045-4.413,21.045
						L-38.938,143.764z"/>
				</g>
				<g>
					<path fill="#8CC63F" d="M-45.237,141.749c0,0,6.503,25.168,4.071,36.536c-2.433,11.368-4.865,22.736-4.865,22.736
						L-45.237,141.749z"/>
				</g>
				<g>
					<path fill="#8CC63F" d="M-83.855,142.955c0,0,18.489,20.479,21.79,32.367c3.3,11.89,6.6,23.778,6.6,23.778L-83.855,142.955z"/>
				</g>
				<g>
					<path fill="#8CC63F" d="M-105.625,142.705c0,0,13.408,19.592,14.854,30.11c1.445,10.518,2.89,21.036,2.89,21.036
						L-105.625,142.705z"/>
				</g>
			</g>
		</g>
	</g>
	<rect x="-12" y="-13.874" clip-path="url(#SVGID_4_)" fill="none" width="648" height="324"/>
</g>
</svg>
