<?xml version="1.0" encoding="utf-8"?>
<!-- Generator: Adobe Illustrator 14.0.0, SVG Export Plug-In . SVG Version: 6.00 Build 43363)  -->
<!DOCTYPE svg PUBLIC "-//W3C//DTD SVG 1.1//EN" "http://www.w3.org/Graphics/SVG/1.1/DTD/svg11.dtd">
<svg version="1.1" id="Layer_1" xmlns="http://www.w3.org/2000/svg" xmlns:xlink="http://www.w3.org/1999/xlink" x="0px" y="0px"
	 width="500px" height="500px" viewBox="0 0 500 500" enable-background="new 0 0 500 500" xml:space="preserve">
<g>
	<g>
		<polygon fill="#006837" points="274,207.75 264.016,197.967 262.008,196 262.008,205.798 262.008,207.766 252.008,197.967 
			250,196 250,205.783 250,207.75 240.016,197.967 238.008,196 238.008,205.798 238.008,207.766 228.008,197.967 226,196 
			226,207.758 226,213.508 274,213.508 		"/>
	</g>
	<g>
		<polygon fill="#333333" points="262,220 238,220 226,220 226,304 274,304 274,220 		"/>
	</g>
	<g>
		<polyline fill="none" points="226,196 226,196.492 228.008,198.459 228.008,196.492 238.008,206.291 238.008,196.492 
			240.016,198.459 240.016,196.492 250,206.275 250,196.492 252.008,198.459 252.008,196.492 262.008,206.291 262.008,196.492 
			264.016,198.459 264.016,196.492 274,206.275 		"/>
	</g>
	<g>
		<path fill="#534741" d="M274,280v-24c-12,0-12-12-24-12s-12,12-24,12v24c12,0,12-12,24-12S262,280,274,280z"/>
	</g>
	<g>
		
			<line fill="none" stroke="#009245" stroke-width="0" stroke-linecap="round" stroke-linejoin="round" x1="274" y1="208.242" x2="274" y2="206.275"/>
	</g>
	<g>
		<path fill="none" stroke="#009245" stroke-width="0" stroke-linecap="round" stroke-linejoin="round" d="M274,206.275"/>
	</g>
	<g>
		<path fill="#006837" d="M273.992,214h-9.977h-0.008h-2H262h-9.992H252h-2h-0.008h-9.977H240h-1.992h-0.016h-9.984H226v12v12
			c12,0,12-12,24-12s12,12,24,12v-12v-12H273.992z"/>
	</g>
	<g>
		<path fill="#333333" d="M250,268c-12,0-12,12-24,12h12h24h12C262,280,262,268,250,268z"/>
	</g>
	<g>
		<polygon fill="#009245" points="237.992,220 238.008,220 240,220 240.016,220 249.992,220 250,220 252,220 252.008,220 262,220 
			262.008,220 264.008,220 264.016,220 273.992,220 274,220 274,214 226,214 226,220 228.008,220 		"/>
	</g>
	<g>
		<polygon fill="#00592A" points="237.992,223 238.008,223 240,223 240.016,223 249.992,223 250,223 252,223 252.008,223 262,223 
			262.008,223 264.008,223 264.016,223 273.992,223 274,223 274,220 226,220 226,223 228.008,223 		"/>
	</g>
	<g>
		<polygon fill="#009245" points="264.449,208.258 265.291,206.291 269.483,196.492 266.634,198.459 252.464,208.242 
			253.306,206.275 257.491,196.492 254.642,198.459 240.449,208.258 241.291,206.291 245.483,196.492 242.634,198.459 
			228.464,208.242 233.491,196.492 230.642,198.459 226,201.664 226,214 274,214 274,201.664 		"/>
	</g>
</g>
</svg>
