<?xml version="1.0" encoding="utf-8"?>
<!-- Generator: Adobe Illustrator 14.0.0, SVG Export Plug-In . SVG Version: 6.00 Build 43363)  -->
<!DOCTYPE svg PUBLIC "-//W3C//DTD SVG 1.1//EN" "http://www.w3.org/Graphics/SVG/1.1/DTD/svg11.dtd">
<svg version="1.1" id="Layer_1" xmlns="http://www.w3.org/2000/svg" xmlns:xlink="http://www.w3.org/1999/xlink" x="0px" y="0px"
	 width="500px" height="500px" viewBox="0 0 500 500" enable-background="new 0 0 500 500" xml:space="preserve">
<g>
	<path fill="#42210B" d="M225.432,111.749c0,0,0,192,0,204s0,0,0,12c0,51.666-12,60-12,60s38.831,0,59.999,0l-11.999-276H225.432z"
		/>
	<rect x="237.432" y="111.749" fill="#603813" width="12" height="276"/>
	<g>
		<path fill="#42210B" d="M245.432,195.749c0,13.255,1.318,24-8,24c-9.32,0-15-10.745-15-24s-2.25-24,16.875-24
			C246.432,171.749,245.432,182.494,245.432,195.749z"/>
	</g>
	<g>
		<g>
			<path fill="#C69C6D" d="M229.432,206.749c-6.065,0-11-7.626-11-17s4.935-17,11-17s11,7.626,11,17
				S235.497,206.749,229.432,206.749L229.432,206.749z"/>
			<path fill="#42210B" d="M229.432,173.749c5.42,0,10,7.327,10,16s-4.58,16-10,16s-10-7.327-10-16S224.011,173.749,229.432,173.749
				 M229.432,171.749c-6.628,0-12,8.059-12,18s5.372,18,12,18c6.627,0,12-8.059,12-18S236.059,171.749,229.432,171.749
				L229.432,171.749z"/>
		</g>
		<g>
			<path fill="#C69C6D" d="M229.432,194.749c-1.626,0-3-2.29-3-5s1.374-5,3-5s3,2.29,3,5S231.058,194.749,229.432,194.749
				L229.432,194.749z"/>
			<path fill="#42210B" d="M229.432,185.749c0.815,0,2,1.558,2,4s-1.185,4-2,4s-2-1.558-2-4S228.616,185.749,229.432,185.749
				 M229.432,183.749c-2.209,0-4,2.687-4,6s1.791,6,4,6s4-2.687,4-6S231.641,183.749,229.432,183.749L229.432,183.749z"/>
		</g>
	</g>
	<g>
		<path fill="#1A1A1A" d="M285.432,387.749c-12,0-12-96-12-72c0-20.061,0-204,0-204h-12v240.017
			c0.01,12.005,11.999,35.983,11.999,35.983C279.082,387.749,283.451,387.749,285.432,387.749z"/>
	</g>
	<path fill="#1A1A1A" d="M224,206c0,0,0.432,1.749,5.432,1.749c4.999,0,4.999,12,4.999,12C225.432,219.749,224,206,224,206z"/>
	<path fill="#603813" d="M237.432,164.999c0,0-2.25,6.5-8,6.75s10.443-0.624,14.916,4.019
		C246.409,177.907,237.432,164.999,237.432,164.999z"/>
</g>
</svg>
